<?xml version="1.0" encoding="UTF-8" standalone="no"?><svg xmlns="http://www.w3.org/2000/svg" xmlns:xlink="http://www.w3.org/1999/xlink" clip-rule="evenodd" stroke-miterlimit="10" viewBox="0 0 712 330"><desc>SVG generated by Keynote</desc><defs></defs><g transform="matrix(1.00, 0.00, -0.00, -1.00, 0.0, 330.0)"><g><clipPath id="clip0x608001aa8c40"><path d="M -6.2 265.7 L 718.2 265.7 L 718.2 335.7 L -6.2 335.7 Z M -6.2 265.7 "></path></clipPath><g clip-path="url(#clip0x608001aa8c40)"><text xml:space="preserve" font-family="Ubuntu-BoldItalic,Ubuntu" font-style="italic" font-weight="bold" font-size="41.0" fill="#FEFFFE" transform="matrix(1.00, 0.00, -0.00, -1.00, 101.4, 286.1)">w</text><text xml:space="preserve" font-family="Ubuntu-BoldItalic,Ubuntu" font-style="italic" font-weight="bold" font-size="41.0" fill="#FEFFFE" transform="matrix(1.00, 0.00, -0.00, -1.00, 134.8, 286.1)">w</text><text xml:space="preserve" font-family="Ubuntu-BoldItalic,Ubuntu" font-style="italic" font-weight="bold" font-size="41.0" fill="#FEFFFE" transform="matrix(1.00, 0.00, -0.00, -1.00, 168.3, 286.1)">w</text><text xml:space="preserve" font-family="Ubuntu-BoldItalic,Ubuntu" font-style="italic" font-weight="bold" font-size="41.0" fill="#FEFFFE" transform="matrix(1.00, 0.00, -0.00, -1.00, 200.8, 286.1)">.</text><text xml:space="preserve" font-family="Ubuntu-BoldItalic,Ubuntu" font-style="italic" font-weight="bold" font-size="41.0" fill="#FEFFFE" transform="matrix(1.00, 0.00, -0.00, -1.00, 210.7, 286.1)">W</text><text xml:space="preserve" font-family="Ubuntu-BoldItalic,Ubuntu" font-style="italic" font-weight="bold" font-size="41.0" fill="#FEFFFE" transform="matrix(1.00, 0.00, -0.00, -1.00, 248.3, 286.1)">e</text><text xml:space="preserve" font-family="Ubuntu-BoldItalic,Ubuntu" font-style="italic" font-weight="bold" font-size="41.0" fill="#FEFFFE" transform="matrix(1.00, 0.00, -0.00, -1.00, 270.0, 286.1)">b</text><text xml:space="preserve" font-family="Ubuntu-BoldItalic,Ubuntu" font-style="italic" font-weight="bold" font-size="41.0" fill="#FEFFFE" transform="matrix(1.00, 0.00, -0.00, -1.00, 293.6, 286.1)">D</text><text xml:space="preserve" font-family="Ubuntu-BoldItalic,Ubuntu" font-style="italic" font-weight="bold" font-size="41.0" fill="#FEFFFE" transform="matrix(1.00, 0.00, -0.00, -1.00, 323.0, 286.1)">e</text><text xml:space="preserve" font-family="Ubuntu-BoldItalic,Ubuntu" font-style="italic" font-weight="bold" font-size="41.0" fill="#FEFFFE" transform="matrix(1.00, 0.00, -0.00, -1.00, 344.7, 286.1)">v</text><text xml:space="preserve" font-family="Ubuntu-BoldItalic,Ubuntu" font-style="italic" font-weight="bold" font-size="41.0" fill="#FEFFFE" transform="matrix(1.00, 0.00, -0.00, -1.00, 367.1, 286.1)">T</text><text xml:space="preserve" font-family="Ubuntu-BoldItalic,Ubuntu" font-style="italic" font-weight="bold" font-size="41.0" fill="#FEFFFE" transform="matrix(1.00, 0.00, -0.00, -1.00, 388.6, 286.1)">u</text><text xml:space="preserve" font-family="Ubuntu-BoldItalic,Ubuntu" font-style="italic" font-weight="bold" font-size="41.0" fill="#FEFFFE" transform="matrix(1.00, 0.00, -0.00, -1.00, 412.4, 286.1)">t</text><text xml:space="preserve" font-family="Ubuntu-BoldItalic,Ubuntu" font-style="italic" font-weight="bold" font-size="41.0" fill="#FEFFFE" transform="matrix(1.00, 0.00, -0.00, -1.00, 428.9, 286.1)">o</text><text xml:space="preserve" font-family="Ubuntu-BoldItalic,Ubuntu" font-style="italic" font-weight="bold" font-size="41.0" fill="#FEFFFE" transform="matrix(1.00, 0.00, -0.00, -1.00, 452.4, 286.1)">r</text><text xml:space="preserve" font-family="Ubuntu-BoldItalic,Ubuntu" font-style="italic" font-weight="bold" font-size="41.0" fill="#FEFFFE" transform="matrix(1.00, 0.00, -0.00, -1.00, 469.3, 286.1)">i</text><text xml:space="preserve" font-family="Ubuntu-BoldItalic,Ubuntu" font-style="italic" font-weight="bold" font-size="41.0" fill="#FEFFFE" transform="matrix(1.00, 0.00, -0.00, -1.00, 480.9, 286.1)">a</text><text xml:space="preserve" font-family="Ubuntu-BoldItalic,Ubuntu" font-style="italic" font-weight="bold" font-size="41.0" fill="#FEFFFE" transform="matrix(1.00, 0.00, -0.00, -1.00, 505.0, 286.1)">l</text><text xml:space="preserve" font-family="Ubuntu-BoldItalic,Ubuntu" font-style="italic" font-weight="bold" font-size="41.0" fill="#FEFFFE" transform="matrix(1.00, 0.00, -0.00, -1.00, 517.9, 286.1)">s</text><text xml:space="preserve" font-family="Ubuntu-BoldItalic,Ubuntu" font-style="italic" font-weight="bold" font-size="41.0" fill="#FEFFFE" transform="matrix(1.00, 0.00, -0.00, -1.00, 538.3, 286.1)">.</text><text xml:space="preserve" font-family="Ubuntu-BoldItalic,Ubuntu" font-style="italic" font-weight="bold" font-size="41.0" fill="#FEFFFE" transform="matrix(1.00, 0.00, -0.00, -1.00, 548.6, 286.1)">n</text><text xml:space="preserve" font-family="Ubuntu-BoldItalic,Ubuntu" font-style="italic" font-weight="bold" font-size="41.0" fill="#FEFFFE" transform="matrix(1.00, 0.00, -0.00, -1.00, 571.8, 286.1)">e</text><text xml:space="preserve" font-family="Ubuntu-BoldItalic,Ubuntu" font-style="italic" font-weight="bold" font-size="41.0" fill="#FEFFFE" transform="matrix(1.00, 0.00, -0.00, -1.00, 593.6, 286.1)">t</text></g></g><g><clipPath id="clip0x608001aa9960"><path d="M -6.2 -6.8 L 718.2 -6.8 L 718.2 298.2 L -6.2 298.2 Z M -6.2 -6.8 "></path></clipPath><g clip-path="url(#clip0x608001aa9960)"><text xml:space="preserve" font-family="Ubuntu-Italic,Ubuntu" font-style="italic" font-size="41.0" fill="#FEFFFE" transform="matrix(1.00, 0.00, -0.00, -1.00, 69.5, 201.6)">A</text><text xml:space="preserve" font-family="Ubuntu-Italic,Ubuntu" font-style="italic" font-size="41.0" fill="#FEFFFE" transform="matrix(1.00, 0.00, -0.00, -1.00, 95.7, 201.6)">n</text><text xml:space="preserve" font-family="Ubuntu-Italic,Ubuntu" font-style="italic" font-size="41.0" fill="#FEFFFE" transform="matrix(1.00, 0.00, -0.00, -1.00, 118.4, 201.6)"> </text><text xml:space="preserve" font-family="Ubuntu-Italic,Ubuntu" font-style="italic" font-size="41.0" fill="#FEFFFE" transform="matrix(1.00, 0.00, -0.00, -1.00, 128.1, 201.6)">i</text><text xml:space="preserve" font-family="Ubuntu-Italic,Ubuntu" font-style="italic" font-size="41.0" fill="#FEFFFE" transform="matrix(1.00, 0.00, -0.00, -1.00, 138.5, 201.6)">n</text><text xml:space="preserve" font-family="Ubuntu-Italic,Ubuntu" font-style="italic" font-size="41.0" fill="#FEFFFE" transform="matrix(1.00, 0.00, -0.00, -1.00, 161.2, 201.6)">t</text><text xml:space="preserve" font-family="Ubuntu-Italic,Ubuntu" font-style="italic" font-size="41.0" fill="#FEFFFE" transform="matrix(1.00, 0.00, -0.00, -1.00, 177.1, 201.6)">e</text><text xml:space="preserve" font-family="Ubuntu-Italic,Ubuntu" font-style="italic" font-size="41.0" fill="#FEFFFE" transform="matrix(1.00, 0.00, -0.00, -1.00, 198.5, 201.6)">r</text><text xml:space="preserve" font-family="Ubuntu-Italic,Ubuntu" font-style="italic" font-size="41.0" fill="#FEFFFE" transform="matrix(1.00, 0.00, -0.00, -1.00, 213.6, 201.6)">a</text><text xml:space="preserve" font-family="Ubuntu-Italic,Ubuntu" font-style="italic" font-size="41.0" fill="#FEFFFE" transform="matrix(1.00, 0.00, -0.00, -1.00, 236.1, 201.6)">c</text><text xml:space="preserve" font-family="Ubuntu-Italic,Ubuntu" font-style="italic" font-size="41.0" fill="#FEFFFE" transform="matrix(1.00, 0.00, -0.00, -1.00, 254.8, 201.6)">t</text><text xml:space="preserve" font-family="Ubuntu-Italic,Ubuntu" font-style="italic" font-size="41.0" fill="#FEFFFE" transform="matrix(1.00, 0.00, -0.00, -1.00, 270.9, 201.6)">i</text><text xml:space="preserve" font-family="Ubuntu-Italic,Ubuntu" font-style="italic" font-size="41.0" fill="#FEFFFE" transform="matrix(1.00, 0.00, -0.00, -1.00, 281.3, 201.6)">v</text><text xml:space="preserve" font-family="Ubuntu-Italic,Ubuntu" font-style="italic" font-size="41.0" fill="#FEFFFE" transform="matrix(1.00, 0.00, -0.00, -1.00, 301.1, 201.6)">e</text><text xml:space="preserve" font-family="Ubuntu-Italic,Ubuntu" font-style="italic" font-size="41.0" fill="#FEFFFE" transform="matrix(1.00, 0.00, -0.00, -1.00, 322.5, 201.6)"> </text><text xml:space="preserve" font-family="Ubuntu-Italic,Ubuntu" font-style="italic" font-size="41.0" fill="#FEFFFE" transform="matrix(1.00, 0.00, -0.00, -1.00, 332.2, 201.6)">l</text><text xml:space="preserve" font-family="Ubuntu-Italic,Ubuntu" font-style="italic" font-size="41.0" fill="#FEFFFE" transform="matrix(1.00, 0.00, -0.00, -1.00, 343.3, 201.6)">e</text><text xml:space="preserve" font-family="Ubuntu-Italic,Ubuntu" font-style="italic" font-size="41.0" fill="#FEFFFE" transform="matrix(1.00, 0.00, -0.00, -1.00, 364.7, 201.6)">a</text><text xml:space="preserve" font-family="Ubuntu-Italic,Ubuntu" font-style="italic" font-size="41.0" fill="#FEFFFE" transform="matrix(1.00, 0.00, -0.00, -1.00, 387.2, 201.6)">r</text><text xml:space="preserve" font-family="Ubuntu-Italic,Ubuntu" font-style="italic" font-size="41.0" fill="#FEFFFE" transform="matrix(1.00, 0.00, -0.00, -1.00, 402.6, 201.6)">n</text><text xml:space="preserve" font-family="Ubuntu-Italic,Ubuntu" font-style="italic" font-size="41.0" fill="#FEFFFE" transform="matrix(1.00, 0.00, -0.00, -1.00, 425.3, 201.6)">i</text><text xml:space="preserve" font-family="Ubuntu-Italic,Ubuntu" font-style="italic" font-size="41.0" fill="#FEFFFE" transform="matrix(1.00, 0.00, -0.00, -1.00, 435.7, 201.6)">n</text><text xml:space="preserve" font-family="Ubuntu-Italic,Ubuntu" font-style="italic" font-size="41.0" fill="#FEFFFE" transform="matrix(1.00, 0.00, -0.00, -1.00, 458.5, 201.6)">g</text><text xml:space="preserve" font-family="Ubuntu-Italic,Ubuntu" font-style="italic" font-size="41.0" fill="#FEFFFE" transform="matrix(1.00, 0.00, -0.00, -1.00, 481.2, 201.6)"> </text><text xml:space="preserve" font-family="Ubuntu-Italic,Ubuntu" font-style="italic" font-size="41.0" fill="#FEFFFE" transform="matrix(1.00, 0.00, -0.00, -1.00, 490.8, 201.6)">w</text><text xml:space="preserve" font-family="Ubuntu-Italic,Ubuntu" font-style="italic" font-size="41.0" fill="#FEFFFE" transform="matrix(1.00, 0.00, -0.00, -1.00, 523.2, 201.6)">e</text><text xml:space="preserve" font-family="Ubuntu-Italic,Ubuntu" font-style="italic" font-size="41.0" fill="#FEFFFE" transform="matrix(1.00, 0.00, -0.00, -1.00, 544.6, 201.6)">b</text><text xml:space="preserve" font-family="Ubuntu-Italic,Ubuntu" font-style="italic" font-size="41.0" fill="#FEFFFE" transform="matrix(1.00, 0.00, -0.00, -1.00, 567.6, 201.6)">s</text><text xml:space="preserve" font-family="Ubuntu-Italic,Ubuntu" font-style="italic" font-size="41.0" fill="#FEFFFE" transform="matrix(1.00, 0.00, -0.00, -1.00, 584.6, 201.6)">i</text><text xml:space="preserve" font-family="Ubuntu-Italic,Ubuntu" font-style="italic" font-size="41.0" fill="#FEFFFE" transform="matrix(1.00, 0.00, -0.00, -1.00, 595.0, 201.6)">t</text><text xml:space="preserve" font-family="Ubuntu-Italic,Ubuntu" font-style="italic" font-size="41.0" fill="#FEFFFE" transform="matrix(1.00, 0.00, -0.00, -1.00, 610.9, 201.6)">e</text><text xml:space="preserve" font-family="Ubuntu-Italic,Ubuntu" font-style="italic" font-size="41.0" fill="#FEFFFE" transform="matrix(1.00, 0.00, -0.00, -1.00, 632.3, 201.6)">.</text><text xml:space="preserve" font-family="Ubuntu-Italic,Ubuntu" font-style="italic" font-size="41.0" fill="#FEFFFE" transform="matrix(1.00, 0.00, -0.00, -1.00, 642.5, 201.6)"> </text><text xml:space="preserve" font-family="Ubuntu-Italic,Ubuntu" font-style="italic" font-size="41.0" fill="#FEFFFE" transform="matrix(1.00, 0.00, -0.00, -1.00, 42.7, 154.6)">W</text><text xml:space="preserve" font-family="Ubuntu-Italic,Ubuntu" font-style="italic" font-size="41.0" fill="#FEFFFE" transform="matrix(1.00, 0.00, -0.00, -1.00, 80.2, 154.6)">e</text><text xml:space="preserve" font-family="Ubuntu-Italic,Ubuntu" font-style="italic" font-size="41.0" fill="#FEFFFE" transform="matrix(1.00, 0.00, -0.00, -1.00, 101.6, 154.6)">b</text><text xml:space="preserve" font-family="Ubuntu-Italic,Ubuntu" font-style="italic" font-size="41.0" fill="#FEFFFE" transform="matrix(1.00, 0.00, -0.00, -1.00, 124.5, 154.6)">D</text><text xml:space="preserve" font-family="Ubuntu-Italic,Ubuntu" font-style="italic" font-size="41.0" fill="#FEFFFE" transform="matrix(1.00, 0.00, -0.00, -1.00, 153.0, 154.6)">e</text><text xml:space="preserve" font-family="Ubuntu-Italic,Ubuntu" font-style="italic" font-size="41.0" fill="#FEFFFE" transform="matrix(1.00, 0.00, -0.00, -1.00, 174.4, 154.6)">v</text><text xml:space="preserve" font-family="Ubuntu-Italic,Ubuntu" font-style="italic" font-size="41.0" fill="#FEFFFE" transform="matrix(1.00, 0.00, -0.00, -1.00, 194.3, 154.6)">T</text><text xml:space="preserve" font-family="Ubuntu-Italic,Ubuntu" font-style="italic" font-size="41.0" fill="#FEFFFE" transform="matrix(1.00, 0.00, -0.00, -1.00, 215.2, 154.6)">u</text><text xml:space="preserve" font-family="Ubuntu-Italic,Ubuntu" font-style="italic" font-size="41.0" fill="#FEFFFE" transform="matrix(1.00, 0.00, -0.00, -1.00, 237.9, 154.6)">t</text><text xml:space="preserve" font-family="Ubuntu-Italic,Ubuntu" font-style="italic" font-size="41.0" fill="#FEFFFE" transform="matrix(1.00, 0.00, -0.00, -1.00, 253.8, 154.6)">o</text><text xml:space="preserve" font-family="Ubuntu-Italic,Ubuntu" font-style="italic" font-size="41.0" fill="#FEFFFE" transform="matrix(1.00, 0.00, -0.00, -1.00, 276.8, 154.6)">r</text><text xml:space="preserve" font-family="Ubuntu-Italic,Ubuntu" font-style="italic" font-size="41.0" fill="#FEFFFE" transform="matrix(1.00, 0.00, -0.00, -1.00, 292.2, 154.6)">i</text><text xml:space="preserve" font-family="Ubuntu-Italic,Ubuntu" font-style="italic" font-size="41.0" fill="#FEFFFE" transform="matrix(1.00, 0.00, -0.00, -1.00, 302.6, 154.6)">a</text><text xml:space="preserve" font-family="Ubuntu-Italic,Ubuntu" font-style="italic" font-size="41.0" fill="#FEFFFE" transform="matrix(1.00, 0.00, -0.00, -1.00, 325.0, 154.6)">l</text><text xml:space="preserve" font-family="Ubuntu-Italic,Ubuntu" font-style="italic" font-size="41.0" fill="#FEFFFE" transform="matrix(1.00, 0.00, -0.00, -1.00, 336.5, 154.6)">s</text><text xml:space="preserve" font-family="Ubuntu-Italic,Ubuntu" font-style="italic" font-size="41.0" fill="#FEFFFE" transform="matrix(1.00, 0.00, -0.00, -1.00, 353.6, 154.6)"> </text><text xml:space="preserve" font-family="Ubuntu-Italic,Ubuntu" font-style="italic" font-size="41.0" fill="#FEFFFE" transform="matrix(1.00, 0.00, -0.00, -1.00, 363.2, 154.6)">c</text><text xml:space="preserve" font-family="Ubuntu-Italic,Ubuntu" font-style="italic" font-size="41.0" fill="#FEFFFE" transform="matrix(1.00, 0.00, -0.00, -1.00, 381.4, 154.6)">o</text><text xml:space="preserve" font-family="Ubuntu-Italic,Ubuntu" font-style="italic" font-size="41.0" fill="#FEFFFE" transform="matrix(1.00, 0.00, -0.00, -1.00, 404.4, 154.6)">n</text><text xml:space="preserve" font-family="Ubuntu-Italic,Ubuntu" font-style="italic" font-size="41.0" fill="#FEFFFE" transform="matrix(1.00, 0.00, -0.00, -1.00, 427.1, 154.6)">t</text><text xml:space="preserve" font-family="Ubuntu-Italic,Ubuntu" font-style="italic" font-size="41.0" fill="#FEFFFE" transform="matrix(1.00, 0.00, -0.00, -1.00, 443.0, 154.6)">a</text><text xml:space="preserve" font-family="Ubuntu-Italic,Ubuntu" font-style="italic" font-size="41.0" fill="#FEFFFE" transform="matrix(1.00, 0.00, -0.00, -1.00, 465.5, 154.6)">i</text><text xml:space="preserve" font-family="Ubuntu-Italic,Ubuntu" font-style="italic" font-size="41.0" fill="#FEFFFE" transform="matrix(1.00, 0.00, -0.00, -1.00, 475.9, 154.6)">n</text><text xml:space="preserve" font-family="Ubuntu-Italic,Ubuntu" font-style="italic" font-size="41.0" fill="#FEFFFE" transform="matrix(1.00, 0.00, -0.00, -1.00, 498.6, 154.6)">s</text><text xml:space="preserve" font-family="Ubuntu-Italic,Ubuntu" font-style="italic" font-size="41.0" fill="#FEFFFE" transform="matrix(1.00, 0.00, -0.00, -1.00, 515.7, 154.6)"> </text><text xml:space="preserve" font-family="Ubuntu-Italic,Ubuntu" font-style="italic" font-size="41.0" fill="#FEFFFE" transform="matrix(1.00, 0.00, -0.00, -1.00, 525.3, 154.6)">a</text><text xml:space="preserve" font-family="Ubuntu-Italic,Ubuntu" font-style="italic" font-size="41.0" fill="#FEFFFE" transform="matrix(1.00, 0.00, -0.00, -1.00, 547.8, 154.6)"> </text><text xml:space="preserve" font-family="Ubuntu-Italic,Ubuntu" font-style="italic" font-size="41.0" fill="#FEFFFE" transform="matrix(1.00, 0.00, -0.00, -1.00, 557.4, 154.6)">m</text><text xml:space="preserve" font-family="Ubuntu-Italic,Ubuntu" font-style="italic" font-size="41.0" fill="#FEFFFE" transform="matrix(1.00, 0.00, -0.00, -1.00, 591.5, 154.6)">i</text><text xml:space="preserve" font-family="Ubuntu-Italic,Ubuntu" font-style="italic" font-size="41.0" fill="#FEFFFE" transform="matrix(1.00, 0.00, -0.00, -1.00, 601.9, 154.6)">x</text><text xml:space="preserve" font-family="Ubuntu-Italic,Ubuntu" font-style="italic" font-size="41.0" fill="#FEFFFE" transform="matrix(1.00, 0.00, -0.00, -1.00, 621.5, 154.6)"> </text><text xml:space="preserve" font-family="Ubuntu-Italic,Ubuntu" font-style="italic" font-size="41.0" fill="#FEFFFE" transform="matrix(1.00, 0.00, -0.00, -1.00, 631.1, 154.6)">o</text><text xml:space="preserve" font-family="Ubuntu-Italic,Ubuntu" font-style="italic" font-size="41.0" fill="#FEFFFE" transform="matrix(1.00, 0.00, -0.00, -1.00, 654.0, 154.6)">f</text><text xml:space="preserve" font-family="Ubuntu-Italic,Ubuntu" font-style="italic" font-size="41.0" fill="#FEFFFE" transform="matrix(1.00, 0.00, -0.00, -1.00, 669.3, 154.6)"> </text><text xml:space="preserve" font-family="Ubuntu-Italic,Ubuntu" font-style="italic" font-size="41.0" fill="#FEFFFE" transform="matrix(1.00, 0.00, -0.00, -1.00, 129.4, 107.6)">v</text><text xml:space="preserve" font-family="Ubuntu-Italic,Ubuntu" font-style="italic" font-size="41.0" fill="#FEFFFE" transform="matrix(1.00, 0.00, -0.00, -1.00, 149.3, 107.6)">i</text><text xml:space="preserve" font-family="Ubuntu-Italic,Ubuntu" font-style="italic" font-size="41.0" fill="#FEFFFE" transform="matrix(1.00, 0.00, -0.00, -1.00, 159.7, 107.6)">d</text><text xml:space="preserve" font-family="Ubuntu-Italic,Ubuntu" font-style="italic" font-size="41.0" fill="#FEFFFE" transform="matrix(1.00, 0.00, -0.00, -1.00, 182.2, 107.6)">e</text><text xml:space="preserve" font-family="Ubuntu-Italic,Ubuntu" font-style="italic" font-size="41.0" fill="#FEFFFE" transform="matrix(1.00, 0.00, -0.00, -1.00, 203.6, 107.6)">o</text><text xml:space="preserve" font-family="Ubuntu-Italic,Ubuntu" font-style="italic" font-size="41.0" fill="#FEFFFE" transform="matrix(1.00, 0.00, -0.00, -1.00, 226.6, 107.6)">s</text><text xml:space="preserve" font-family="Ubuntu-Italic,Ubuntu" font-style="italic" font-size="41.0" fill="#FEFFFE" transform="matrix(1.00, 0.00, -0.00, -1.00, 243.6, 107.6)">,</text><text xml:space="preserve" font-family="Ubuntu-Italic,Ubuntu" font-style="italic" font-size="41.0" fill="#FEFFFE" transform="matrix(1.00, 0.00, -0.00, -1.00, 253.9, 107.6)"> </text><text xml:space="preserve" font-family="Ubuntu-Italic,Ubuntu" font-style="italic" font-size="41.0" fill="#FEFFFE" transform="matrix(1.00, 0.00, -0.00, -1.00, 263.5, 107.6)">e</text><text xml:space="preserve" font-family="Ubuntu-Italic,Ubuntu" font-style="italic" font-size="41.0" fill="#FEFFFE" transform="matrix(1.00, 0.00, -0.00, -1.00, 284.9, 107.6)">x</text><text xml:space="preserve" font-family="Ubuntu-Italic,Ubuntu" font-style="italic" font-size="41.0" fill="#FEFFFE" transform="matrix(1.00, 0.00, -0.00, -1.00, 304.5, 107.6)">p</text><text xml:space="preserve" font-family="Ubuntu-Italic,Ubuntu" font-style="italic" font-size="41.0" fill="#FEFFFE" transform="matrix(1.00, 0.00, -0.00, -1.00, 327.0, 107.6)">l</text><text xml:space="preserve" font-family="Ubuntu-Italic,Ubuntu" font-style="italic" font-size="41.0" fill="#FEFFFE" transform="matrix(1.00, 0.00, -0.00, -1.00, 338.0, 107.6)">a</text><text xml:space="preserve" font-family="Ubuntu-Italic,Ubuntu" font-style="italic" font-size="41.0" fill="#FEFFFE" transform="matrix(1.00, 0.00, -0.00, -1.00, 360.5, 107.6)">n</text><text xml:space="preserve" font-family="Ubuntu-Italic,Ubuntu" font-style="italic" font-size="41.0" fill="#FEFFFE" transform="matrix(1.00, 0.00, -0.00, -1.00, 383.2, 107.6)">a</text><text xml:space="preserve" font-family="Ubuntu-Italic,Ubuntu" font-style="italic" font-size="41.0" fill="#FEFFFE" transform="matrix(1.00, 0.00, -0.00, -1.00, 405.7, 107.6)">t</text><text xml:space="preserve" font-family="Ubuntu-Italic,Ubuntu" font-style="italic" font-size="41.0" fill="#FEFFFE" transform="matrix(1.00, 0.00, -0.00, -1.00, 421.8, 107.6)">i</text><text xml:space="preserve" font-family="Ubuntu-Italic,Ubuntu" font-style="italic" font-size="41.0" fill="#FEFFFE" transform="matrix(1.00, 0.00, -0.00, -1.00, 432.2, 107.6)">o</text><text xml:space="preserve" font-family="Ubuntu-Italic,Ubuntu" font-style="italic" font-size="41.0" fill="#FEFFFE" transform="matrix(1.00, 0.00, -0.00, -1.00, 455.1, 107.6)">n</text><text xml:space="preserve" font-family="Ubuntu-Italic,Ubuntu" font-style="italic" font-size="41.0" fill="#FEFFFE" transform="matrix(1.00, 0.00, -0.00, -1.00, 477.9, 107.6)">s</text><text xml:space="preserve" font-family="Ubuntu-Italic,Ubuntu" font-style="italic" font-size="41.0" fill="#FEFFFE" transform="matrix(1.00, 0.00, -0.00, -1.00, 494.9, 107.6)">,</text><text xml:space="preserve" font-family="Ubuntu-Italic,Ubuntu" font-style="italic" font-size="41.0" fill="#FEFFFE" transform="matrix(1.00, 0.00, -0.00, -1.00, 505.2, 107.6)"> </text><text xml:space="preserve" font-family="Ubuntu-Italic,Ubuntu" font-style="italic" font-size="41.0" fill="#FEFFFE" transform="matrix(1.00, 0.00, -0.00, -1.00, 514.8, 107.6)">a</text><text xml:space="preserve" font-family="Ubuntu-Italic,Ubuntu" font-style="italic" font-size="41.0" fill="#FEFFFE" transform="matrix(1.00, 0.00, -0.00, -1.00, 537.3, 107.6)">n</text><text xml:space="preserve" font-family="Ubuntu-Italic,Ubuntu" font-style="italic" font-size="41.0" fill="#FEFFFE" transform="matrix(1.00, 0.00, -0.00, -1.00, 560.0, 107.6)">d</text><text xml:space="preserve" font-family="Ubuntu-Italic,Ubuntu" font-style="italic" font-size="41.0" fill="#FEFFFE" transform="matrix(1.00, 0.00, -0.00, -1.00, 582.6, 107.6)"> </text><text xml:space="preserve" font-family="Ubuntu-Italic,Ubuntu" font-style="italic" font-size="41.0" fill="#FEFFFE" transform="matrix(1.00, 0.00, -0.00, -1.00, 19.1, 60.6)">p</text><text xml:space="preserve" font-family="Ubuntu-Italic,Ubuntu" font-style="italic" font-size="41.0" fill="#FEFFFE" transform="matrix(1.00, 0.00, -0.00, -1.00, 41.6, 60.6)">r</text><text xml:space="preserve" font-family="Ubuntu-Italic,Ubuntu" font-style="italic" font-size="41.0" fill="#FEFFFE" transform="matrix(1.00, 0.00, -0.00, -1.00, 56.8, 60.6)">o</text><text xml:space="preserve" font-family="Ubuntu-Italic,Ubuntu" font-style="italic" font-size="41.0" fill="#FEFFFE" transform="matrix(1.00, 0.00, -0.00, -1.00, 79.7, 60.6)">g</text><text xml:space="preserve" font-family="Ubuntu-Italic,Ubuntu" font-style="italic" font-size="41.0" fill="#FEFFFE" transform="matrix(1.00, 0.00, -0.00, -1.00, 102.5, 60.6)">r</text><text xml:space="preserve" font-family="Ubuntu-Italic,Ubuntu" font-style="italic" font-size="41.0" fill="#FEFFFE" transform="matrix(1.00, 0.00, -0.00, -1.00, 117.6, 60.6)">a</text><text xml:space="preserve" font-family="Ubuntu-Italic,Ubuntu" font-style="italic" font-size="41.0" fill="#FEFFFE" transform="matrix(1.00, 0.00, -0.00, -1.00, 140.1, 60.6)">m</text><text xml:space="preserve" font-family="Ubuntu-Italic,Ubuntu" font-style="italic" font-size="41.0" fill="#FEFFFE" transform="matrix(1.00, 0.00, -0.00, -1.00, 174.2, 60.6)">m</text><text xml:space="preserve" font-family="Ubuntu-Italic,Ubuntu" font-style="italic" font-size="41.0" fill="#FEFFFE" transform="matrix(1.00, 0.00, -0.00, -1.00, 208.3, 60.6)">i</text><text xml:space="preserve" font-family="Ubuntu-Italic,Ubuntu" font-style="italic" font-size="41.0" fill="#FEFFFE" transform="matrix(1.00, 0.00, -0.00, -1.00, 218.7, 60.6)">n</text><text xml:space="preserve" font-family="Ubuntu-Italic,Ubuntu" font-style="italic" font-size="41.0" fill="#FEFFFE" transform="matrix(1.00, 0.00, -0.00, -1.00, 241.4, 60.6)">g</text><text xml:space="preserve" font-family="Ubuntu-Italic,Ubuntu" font-style="italic" font-size="41.0" fill="#FEFFFE" transform="matrix(1.00, 0.00, -0.00, -1.00, 264.1, 60.6)"> </text><text xml:space="preserve" font-family="Ubuntu-Italic,Ubuntu" font-style="italic" font-size="41.0" fill="#FEFFFE" transform="matrix(1.00, 0.00, -0.00, -1.00, 273.8, 60.6)">c</text><text xml:space="preserve" font-family="Ubuntu-Italic,Ubuntu" font-style="italic" font-size="41.0" fill="#FEFFFE" transform="matrix(1.00, 0.00, -0.00, -1.00, 292.4, 60.6)">h</text><text xml:space="preserve" font-family="Ubuntu-Italic,Ubuntu" font-style="italic" font-size="41.0" fill="#FEFFFE" transform="matrix(1.00, 0.00, -0.00, -1.00, 315.2, 60.6)">a</text><text xml:space="preserve" font-family="Ubuntu-Italic,Ubuntu" font-style="italic" font-size="41.0" fill="#FEFFFE" transform="matrix(1.00, 0.00, -0.00, -1.00, 337.7, 60.6)">l</text><text xml:space="preserve" font-family="Ubuntu-Italic,Ubuntu" font-style="italic" font-size="41.0" fill="#FEFFFE" transform="matrix(1.00, 0.00, -0.00, -1.00, 348.9, 60.6)">l</text><text xml:space="preserve" font-family="Ubuntu-Italic,Ubuntu" font-style="italic" font-size="41.0" fill="#FEFFFE" transform="matrix(1.00, 0.00, -0.00, -1.00, 360.1, 60.6)">e</text><text xml:space="preserve" font-family="Ubuntu-Italic,Ubuntu" font-style="italic" font-size="41.0" fill="#FEFFFE" transform="matrix(1.00, 0.00, -0.00, -1.00, 381.5, 60.6)">n</text><text xml:space="preserve" font-family="Ubuntu-Italic,Ubuntu" font-style="italic" font-size="41.0" fill="#FEFFFE" transform="matrix(1.00, 0.00, -0.00, -1.00, 404.2, 60.6)">g</text><text xml:space="preserve" font-family="Ubuntu-Italic,Ubuntu" font-style="italic" font-size="41.0" fill="#FEFFFE" transform="matrix(1.00, 0.00, -0.00, -1.00, 426.9, 60.6)">e</text><text xml:space="preserve" font-family="Ubuntu-Italic,Ubuntu" font-style="italic" font-size="41.0" fill="#FEFFFE" transform="matrix(1.00, 0.00, -0.00, -1.00, 448.3, 60.6)">s</text><text xml:space="preserve" font-family="Ubuntu-Italic,Ubuntu" font-style="italic" font-size="41.0" fill="#FEFFFE" transform="matrix(1.00, 0.00, -0.00, -1.00, 465.4, 60.6)"> </text><text xml:space="preserve" font-family="Ubuntu-Italic,Ubuntu" font-style="italic" font-size="41.0" fill="#FEFFFE" transform="matrix(1.00, 0.00, -0.00, -1.00, 475.0, 60.6)">w</text><text xml:space="preserve" font-family="Ubuntu-Italic,Ubuntu" font-style="italic" font-size="41.0" fill="#FEFFFE" transform="matrix(1.00, 0.00, -0.00, -1.00, 507.5, 60.6)">h</text><text xml:space="preserve" font-family="Ubuntu-Italic,Ubuntu" font-style="italic" font-size="41.0" fill="#FEFFFE" transform="matrix(1.00, 0.00, -0.00, -1.00, 530.2, 60.6)">i</text><text xml:space="preserve" font-family="Ubuntu-Italic,Ubuntu" font-style="italic" font-size="41.0" fill="#FEFFFE" transform="matrix(1.00, 0.00, -0.00, -1.00, 540.6, 60.6)">c</text><text xml:space="preserve" font-family="Ubuntu-Italic,Ubuntu" font-style="italic" font-size="41.0" fill="#FEFFFE" transform="matrix(1.00, 0.00, -0.00, -1.00, 559.3, 60.6)">h</text><text xml:space="preserve" font-family="Ubuntu-Italic,Ubuntu" font-style="italic" font-size="41.0" fill="#FEFFFE" transform="matrix(1.00, 0.00, -0.00, -1.00, 582.1, 60.6)"> </text><text xml:space="preserve" font-family="Ubuntu-Italic,Ubuntu" font-style="italic" font-size="41.0" fill="#FEFFFE" transform="matrix(1.00, 0.00, -0.00, -1.00, 591.7, 60.6)">t</text><text xml:space="preserve" font-family="Ubuntu-Italic,Ubuntu" font-style="italic" font-size="41.0" fill="#FEFFFE" transform="matrix(1.00, 0.00, -0.00, -1.00, 607.6, 60.6)">e</text><text xml:space="preserve" font-family="Ubuntu-Italic,Ubuntu" font-style="italic" font-size="41.0" fill="#FEFFFE" transform="matrix(1.00, 0.00, -0.00, -1.00, 629.0, 60.6)">a</text><text xml:space="preserve" font-family="Ubuntu-Italic,Ubuntu" font-style="italic" font-size="41.0" fill="#FEFFFE" transform="matrix(1.00, 0.00, -0.00, -1.00, 651.5, 60.6)">c</text><text xml:space="preserve" font-family="Ubuntu-Italic,Ubuntu" font-style="italic" font-size="41.0" fill="#FEFFFE" transform="matrix(1.00, 0.00, -0.00, -1.00, 670.1, 60.6)">h</text><text xml:space="preserve" font-family="Ubuntu-Italic,Ubuntu" font-style="italic" font-size="41.0" fill="#FEFFFE" transform="matrix(1.00, 0.00, -0.00, -1.00, 692.9, 60.6)"> </text><text xml:space="preserve" font-family="Ubuntu-Italic,Ubuntu" font-style="italic" font-size="41.0" fill="#FEFFFE" transform="matrix(1.00, 0.00, -0.00, -1.00, 216.8, 13.6)">H</text><text xml:space="preserve" font-family="Ubuntu-Italic,Ubuntu" font-style="italic" font-size="41.0" fill="#FEFFFE" transform="matrix(1.00, 0.00, -0.00, -1.00, 244.9, 13.6)">T</text><text xml:space="preserve" font-family="Ubuntu-Italic,Ubuntu" font-style="italic" font-size="41.0" fill="#FEFFFE" transform="matrix(1.00, 0.00, -0.00, -1.00, 267.5, 13.6)">M</text><text xml:space="preserve" font-family="Ubuntu-Italic,Ubuntu" font-style="italic" font-size="41.0" fill="#FEFFFE" transform="matrix(1.00, 0.00, -0.00, -1.00, 302.4, 13.6)">L</text><text xml:space="preserve" font-family="Ubuntu-Italic,Ubuntu" font-style="italic" font-size="41.0" fill="#FEFFFE" transform="matrix(1.00, 0.00, -0.00, -1.00, 323.3, 13.6)"> </text><text xml:space="preserve" font-family="Ubuntu-Italic,Ubuntu" font-style="italic" font-size="41.0" fill="#FEFFFE" transform="matrix(1.00, 0.00, -0.00, -1.00, 333.0, 13.6)">a</text><text xml:space="preserve" font-family="Ubuntu-Italic,Ubuntu" font-style="italic" font-size="41.0" fill="#FEFFFE" transform="matrix(1.00, 0.00, -0.00, -1.00, 355.4, 13.6)">n</text><text xml:space="preserve" font-family="Ubuntu-Italic,Ubuntu" font-style="italic" font-size="41.0" fill="#FEFFFE" transform="matrix(1.00, 0.00, -0.00, -1.00, 378.2, 13.6)">d</text><text xml:space="preserve" font-family="Ubuntu-Italic,Ubuntu" font-style="italic" font-size="41.0" fill="#FEFFFE" transform="matrix(1.00, 0.00, -0.00, -1.00, 400.8, 13.6)"> </text><text xml:space="preserve" font-family="Ubuntu-Italic,Ubuntu" font-style="italic" font-size="41.0" fill="#FEFFFE" transform="matrix(1.00, 0.00, -0.00, -1.00, 410.4, 13.6)">P</text><text xml:space="preserve" font-family="Ubuntu-Italic,Ubuntu" font-style="italic" font-size="41.0" fill="#FEFFFE" transform="matrix(1.00, 0.00, -0.00, -1.00, 434.8, 13.6)">H</text><text xml:space="preserve" font-family="Ubuntu-Italic,Ubuntu" font-style="italic" font-size="41.0" fill="#FEFFFE" transform="matrix(1.00, 0.00, -0.00, -1.00, 462.9, 13.6)">P</text><text xml:space="preserve" font-family="Ubuntu-Italic,Ubuntu" font-style="italic" font-size="41.0" fill="#FEFFFE" transform="matrix(1.00, 0.00, -0.00, -1.00, 485.0, 13.6)">.</text></g></g></g></svg>