<?xml version="1.0" encoding="UTF-8" standalone="no"?><svg xmlns="http://www.w3.org/2000/svg" xmlns:xlink="http://www.w3.org/1999/xlink" clip-rule="evenodd" stroke-miterlimit="10" viewBox="0 0 1024 768"><desc>SVG generated by Keynote</desc><defs></defs><g transform="matrix(1.00, 0.00, -0.00, -1.00, 0.0, 768.0)"><path d="M 0.0 768.0 L 1024.0 768.0 L 1024.0 0.0 L 0.0 0.0 Z M 0.0 768.0 " fill="#FEFFFE"></path><path d="M 0.0 -0.5 L 112.0 -0.5 L 112.0 -0.5 L 0.0 -0.5 Z M 0.0 0.0 " fill="none" stroke="#9A9A99" stroke-width="1.00" transform="matrix(0.00, -1.00, -1.00, 0.00, 594.0, 140.0)"></path><g><clipPath id="clip0x608001ab82a0"><path d="M 0.0 768.0 L 1024.0 768.0 L 1024.0 170.0 L 0.0 170.0 Z M 0.0 768.0 "></path></clipPath><g clip-path="url(#clip0x608001ab82a0)"><image xlink:href="../../C6473D55-9E58-4FDD-BDBE-1FB9D336F246/assets/E87F10261595C1B1EC4DE987EA521272.png" width="1411.00" height="897.00" transform="matrix(0.94, 0.00, -0.00, -0.94, -150.5, 890.1)"></image></g></g><text xml:space="preserve" font-family="HelveticaNeue-Light,Helvetica Neue" font-size="42.0" fill="#000000" transform="matrix(1.00, 0.00, -0.00, -1.00, 422.8, 65.2)">P</text><text xml:space="preserve" font-family="HelveticaNeue-Light,Helvetica Neue" font-size="42.0" fill="#000000" transform="matrix(1.00, 0.00, -0.00, -1.00, 449.3, 65.2)">r</text><text xml:space="preserve" font-family="HelveticaNeue-Light,Helvetica Neue" font-size="42.0" fill="#000000" transform="matrix(1.00, 0.00, -0.00, -1.00, 461.8, 65.2)">o</text><text xml:space="preserve" font-family="HelveticaNeue-Light,Helvetica Neue" font-size="42.0" fill="#000000" transform="matrix(1.00, 0.00, -0.00, -1.00, 485.1, 65.2)">d</text><text xml:space="preserve" font-family="HelveticaNeue-Light,Helvetica Neue" font-size="42.0" fill="#000000" transform="matrix(1.00, 0.00, -0.00, -1.00, 509.2, 65.2)">u</text><text xml:space="preserve" font-family="HelveticaNeue-Light,Helvetica Neue" font-size="42.0" fill="#000000" transform="matrix(1.00, 0.00, -0.00, -1.00, 531.8, 65.2)">c</text><text xml:space="preserve" font-family="HelveticaNeue-Light,Helvetica Neue" font-size="42.0" fill="#000000" transform="matrix(1.00, 0.00, -0.00, -1.00, 553.6, 65.2)">t</text><text xml:space="preserve" font-family="HelveticaNeue,Helvetica Neue" font-size="26.0" fill="#747373" transform="matrix(1.00, 0.00, -0.00, -1.00, 622.0, 71.3)">T</text><text xml:space="preserve" font-family="HelveticaNeue,Helvetica Neue" font-size="26.0" fill="#747373" transform="matrix(1.00, 0.00, -0.00, -1.00, 636.9, 71.3)">h</text><text xml:space="preserve" font-family="HelveticaNeue,Helvetica Neue" font-size="26.0" fill="#747373" transform="matrix(1.00, 0.00, -0.00, -1.00, 651.4, 71.3)">r</text><text xml:space="preserve" font-family="HelveticaNeue,Helvetica Neue" font-size="26.0" fill="#747373" transform="matrix(1.00, 0.00, -0.00, -1.00, 659.6, 71.3)">e</text><text xml:space="preserve" font-family="HelveticaNeue,Helvetica Neue" font-size="26.0" fill="#747373" transform="matrix(1.00, 0.00, -0.00, -1.00, 673.5, 71.3)">e</text><g><clipPath id="clip0x600001aaad40"><path d="M 149.8 569.7 L 874.2 569.7 L 874.2 639.7 L 149.8 639.7 Z M 149.8 569.7 "></path></clipPath><g clip-path="url(#clip0x600001aaad40)"><text xml:space="preserve" font-family="Ubuntu-BoldItalic,Ubuntu" font-style="italic" font-weight="bold" font-size="41.0" fill="#FEFFFE" transform="matrix(1.00, 0.00, -0.00, -1.00, 257.4, 590.1)">w</text><text xml:space="preserve" font-family="Ubuntu-BoldItalic,Ubuntu" font-style="italic" font-weight="bold" font-size="41.0" fill="#FEFFFE" transform="matrix(1.00, 0.00, -0.00, -1.00, 290.8, 590.1)">w</text><text xml:space="preserve" font-family="Ubuntu-BoldItalic,Ubuntu" font-style="italic" font-weight="bold" font-size="41.0" fill="#FEFFFE" transform="matrix(1.00, 0.00, -0.00, -1.00, 324.3, 590.1)">w</text><text xml:space="preserve" font-family="Ubuntu-BoldItalic,Ubuntu" font-style="italic" font-weight="bold" font-size="41.0" fill="#FEFFFE" transform="matrix(1.00, 0.00, -0.00, -1.00, 356.8, 590.1)">.</text><text xml:space="preserve" font-family="Ubuntu-BoldItalic,Ubuntu" font-style="italic" font-weight="bold" font-size="41.0" fill="#FEFFFE" transform="matrix(1.00, 0.00, -0.00, -1.00, 366.7, 590.1)">W</text><text xml:space="preserve" font-family="Ubuntu-BoldItalic,Ubuntu" font-style="italic" font-weight="bold" font-size="41.0" fill="#FEFFFE" transform="matrix(1.00, 0.00, -0.00, -1.00, 404.3, 590.1)">e</text><text xml:space="preserve" font-family="Ubuntu-BoldItalic,Ubuntu" font-style="italic" font-weight="bold" font-size="41.0" fill="#FEFFFE" transform="matrix(1.00, 0.00, -0.00, -1.00, 426.0, 590.1)">b</text><text xml:space="preserve" font-family="Ubuntu-BoldItalic,Ubuntu" font-style="italic" font-weight="bold" font-size="41.0" fill="#FEFFFE" transform="matrix(1.00, 0.00, -0.00, -1.00, 449.6, 590.1)">D</text><text xml:space="preserve" font-family="Ubuntu-BoldItalic,Ubuntu" font-style="italic" font-weight="bold" font-size="41.0" fill="#FEFFFE" transform="matrix(1.00, 0.00, -0.00, -1.00, 479.0, 590.1)">e</text><text xml:space="preserve" font-family="Ubuntu-BoldItalic,Ubuntu" font-style="italic" font-weight="bold" font-size="41.0" fill="#FEFFFE" transform="matrix(1.00, 0.00, -0.00, -1.00, 500.7, 590.1)">v</text><text xml:space="preserve" font-family="Ubuntu-BoldItalic,Ubuntu" font-style="italic" font-weight="bold" font-size="41.0" fill="#FEFFFE" transform="matrix(1.00, 0.00, -0.00, -1.00, 523.1, 590.1)">T</text><text xml:space="preserve" font-family="Ubuntu-BoldItalic,Ubuntu" font-style="italic" font-weight="bold" font-size="41.0" fill="#FEFFFE" transform="matrix(1.00, 0.00, -0.00, -1.00, 544.6, 590.1)">u</text><text xml:space="preserve" font-family="Ubuntu-BoldItalic,Ubuntu" font-style="italic" font-weight="bold" font-size="41.0" fill="#FEFFFE" transform="matrix(1.00, 0.00, -0.00, -1.00, 568.4, 590.1)">t</text><text xml:space="preserve" font-family="Ubuntu-BoldItalic,Ubuntu" font-style="italic" font-weight="bold" font-size="41.0" fill="#FEFFFE" transform="matrix(1.00, 0.00, -0.00, -1.00, 584.9, 590.1)">o</text><text xml:space="preserve" font-family="Ubuntu-BoldItalic,Ubuntu" font-style="italic" font-weight="bold" font-size="41.0" fill="#FEFFFE" transform="matrix(1.00, 0.00, -0.00, -1.00, 608.4, 590.1)">r</text><text xml:space="preserve" font-family="Ubuntu-BoldItalic,Ubuntu" font-style="italic" font-weight="bold" font-size="41.0" fill="#FEFFFE" transform="matrix(1.00, 0.00, -0.00, -1.00, 625.3, 590.1)">i</text><text xml:space="preserve" font-family="Ubuntu-BoldItalic,Ubuntu" font-style="italic" font-weight="bold" font-size="41.0" fill="#FEFFFE" transform="matrix(1.00, 0.00, -0.00, -1.00, 636.9, 590.1)">a</text><text xml:space="preserve" font-family="Ubuntu-BoldItalic,Ubuntu" font-style="italic" font-weight="bold" font-size="41.0" fill="#FEFFFE" transform="matrix(1.00, 0.00, -0.00, -1.00, 661.0, 590.1)">l</text><text xml:space="preserve" font-family="Ubuntu-BoldItalic,Ubuntu" font-style="italic" font-weight="bold" font-size="41.0" fill="#FEFFFE" transform="matrix(1.00, 0.00, -0.00, -1.00, 673.9, 590.1)">s</text><text xml:space="preserve" font-family="Ubuntu-BoldItalic,Ubuntu" font-style="italic" font-weight="bold" font-size="41.0" fill="#FEFFFE" transform="matrix(1.00, 0.00, -0.00, -1.00, 694.3, 590.1)">.</text><text xml:space="preserve" font-family="Ubuntu-BoldItalic,Ubuntu" font-style="italic" font-weight="bold" font-size="41.0" fill="#FEFFFE" transform="matrix(1.00, 0.00, -0.00, -1.00, 704.6, 590.1)">n</text><text xml:space="preserve" font-family="Ubuntu-BoldItalic,Ubuntu" font-style="italic" font-weight="bold" font-size="41.0" fill="#FEFFFE" transform="matrix(1.00, 0.00, -0.00, -1.00, 727.8, 590.1)">e</text><text xml:space="preserve" font-family="Ubuntu-BoldItalic,Ubuntu" font-style="italic" font-weight="bold" font-size="41.0" fill="#FEFFFE" transform="matrix(1.00, 0.00, -0.00, -1.00, 749.6, 590.1)">t</text></g></g><g><clipPath id="clip0x600001aab7c0"><path d="M 149.8 297.2 L 874.2 297.2 L 874.2 602.2 L 149.8 602.2 Z M 149.8 297.2 "></path></clipPath><g clip-path="url(#clip0x600001aab7c0)"><text xml:space="preserve" font-family="Ubuntu-Italic,Ubuntu" font-style="italic" font-size="41.0" fill="#FEFFFE" transform="matrix(1.00, 0.00, -0.00, -1.00, 225.5, 505.6)">A</text><text xml:space="preserve" font-family="Ubuntu-Italic,Ubuntu" font-style="italic" font-size="41.0" fill="#FEFFFE" transform="matrix(1.00, 0.00, -0.00, -1.00, 251.7, 505.6)">n</text><text xml:space="preserve" font-family="Ubuntu-Italic,Ubuntu" font-style="italic" font-size="41.0" fill="#FEFFFE" transform="matrix(1.00, 0.00, -0.00, -1.00, 274.4, 505.6)"> </text><text xml:space="preserve" font-family="Ubuntu-Italic,Ubuntu" font-style="italic" font-size="41.0" fill="#FEFFFE" transform="matrix(1.00, 0.00, -0.00, -1.00, 284.1, 505.6)">i</text><text xml:space="preserve" font-family="Ubuntu-Italic,Ubuntu" font-style="italic" font-size="41.0" fill="#FEFFFE" transform="matrix(1.00, 0.00, -0.00, -1.00, 294.5, 505.6)">n</text><text xml:space="preserve" font-family="Ubuntu-Italic,Ubuntu" font-style="italic" font-size="41.0" fill="#FEFFFE" transform="matrix(1.00, 0.00, -0.00, -1.00, 317.2, 505.6)">t</text><text xml:space="preserve" font-family="Ubuntu-Italic,Ubuntu" font-style="italic" font-size="41.0" fill="#FEFFFE" transform="matrix(1.00, 0.00, -0.00, -1.00, 333.1, 505.6)">e</text><text xml:space="preserve" font-family="Ubuntu-Italic,Ubuntu" font-style="italic" font-size="41.0" fill="#FEFFFE" transform="matrix(1.00, 0.00, -0.00, -1.00, 354.5, 505.6)">r</text><text xml:space="preserve" font-family="Ubuntu-Italic,Ubuntu" font-style="italic" font-size="41.0" fill="#FEFFFE" transform="matrix(1.00, 0.00, -0.00, -1.00, 369.6, 505.6)">a</text><text xml:space="preserve" font-family="Ubuntu-Italic,Ubuntu" font-style="italic" font-size="41.0" fill="#FEFFFE" transform="matrix(1.00, 0.00, -0.00, -1.00, 392.1, 505.6)">c</text><text xml:space="preserve" font-family="Ubuntu-Italic,Ubuntu" font-style="italic" font-size="41.0" fill="#FEFFFE" transform="matrix(1.00, 0.00, -0.00, -1.00, 410.8, 505.6)">t</text><text xml:space="preserve" font-family="Ubuntu-Italic,Ubuntu" font-style="italic" font-size="41.0" fill="#FEFFFE" transform="matrix(1.00, 0.00, -0.00, -1.00, 426.9, 505.6)">i</text><text xml:space="preserve" font-family="Ubuntu-Italic,Ubuntu" font-style="italic" font-size="41.0" fill="#FEFFFE" transform="matrix(1.00, 0.00, -0.00, -1.00, 437.3, 505.6)">v</text><text xml:space="preserve" font-family="Ubuntu-Italic,Ubuntu" font-style="italic" font-size="41.0" fill="#FEFFFE" transform="matrix(1.00, 0.00, -0.00, -1.00, 457.1, 505.6)">e</text><text xml:space="preserve" font-family="Ubuntu-Italic,Ubuntu" font-style="italic" font-size="41.0" fill="#FEFFFE" transform="matrix(1.00, 0.00, -0.00, -1.00, 478.5, 505.6)"> </text><text xml:space="preserve" font-family="Ubuntu-Italic,Ubuntu" font-style="italic" font-size="41.0" fill="#FEFFFE" transform="matrix(1.00, 0.00, -0.00, -1.00, 488.2, 505.6)">l</text><text xml:space="preserve" font-family="Ubuntu-Italic,Ubuntu" font-style="italic" font-size="41.0" fill="#FEFFFE" transform="matrix(1.00, 0.00, -0.00, -1.00, 499.3, 505.6)">e</text><text xml:space="preserve" font-family="Ubuntu-Italic,Ubuntu" font-style="italic" font-size="41.0" fill="#FEFFFE" transform="matrix(1.00, 0.00, -0.00, -1.00, 520.7, 505.6)">a</text><text xml:space="preserve" font-family="Ubuntu-Italic,Ubuntu" font-style="italic" font-size="41.0" fill="#FEFFFE" transform="matrix(1.00, 0.00, -0.00, -1.00, 543.2, 505.6)">r</text><text xml:space="preserve" font-family="Ubuntu-Italic,Ubuntu" font-style="italic" font-size="41.0" fill="#FEFFFE" transform="matrix(1.00, 0.00, -0.00, -1.00, 558.6, 505.6)">n</text><text xml:space="preserve" font-family="Ubuntu-Italic,Ubuntu" font-style="italic" font-size="41.0" fill="#FEFFFE" transform="matrix(1.00, 0.00, -0.00, -1.00, 581.3, 505.6)">i</text><text xml:space="preserve" font-family="Ubuntu-Italic,Ubuntu" font-style="italic" font-size="41.0" fill="#FEFFFE" transform="matrix(1.00, 0.00, -0.00, -1.00, 591.7, 505.6)">n</text><text xml:space="preserve" font-family="Ubuntu-Italic,Ubuntu" font-style="italic" font-size="41.0" fill="#FEFFFE" transform="matrix(1.00, 0.00, -0.00, -1.00, 614.5, 505.6)">g</text><text xml:space="preserve" font-family="Ubuntu-Italic,Ubuntu" font-style="italic" font-size="41.0" fill="#FEFFFE" transform="matrix(1.00, 0.00, -0.00, -1.00, 637.2, 505.6)"> </text><text xml:space="preserve" font-family="Ubuntu-Italic,Ubuntu" font-style="italic" font-size="41.0" fill="#FEFFFE" transform="matrix(1.00, 0.00, -0.00, -1.00, 646.8, 505.6)">w</text><text xml:space="preserve" font-family="Ubuntu-Italic,Ubuntu" font-style="italic" font-size="41.0" fill="#FEFFFE" transform="matrix(1.00, 0.00, -0.00, -1.00, 679.2, 505.6)">e</text><text xml:space="preserve" font-family="Ubuntu-Italic,Ubuntu" font-style="italic" font-size="41.0" fill="#FEFFFE" transform="matrix(1.00, 0.00, -0.00, -1.00, 700.6, 505.6)">b</text><text xml:space="preserve" font-family="Ubuntu-Italic,Ubuntu" font-style="italic" font-size="41.0" fill="#FEFFFE" transform="matrix(1.00, 0.00, -0.00, -1.00, 723.6, 505.6)">s</text><text xml:space="preserve" font-family="Ubuntu-Italic,Ubuntu" font-style="italic" font-size="41.0" fill="#FEFFFE" transform="matrix(1.00, 0.00, -0.00, -1.00, 740.6, 505.6)">i</text><text xml:space="preserve" font-family="Ubuntu-Italic,Ubuntu" font-style="italic" font-size="41.0" fill="#FEFFFE" transform="matrix(1.00, 0.00, -0.00, -1.00, 751.0, 505.6)">t</text><text xml:space="preserve" font-family="Ubuntu-Italic,Ubuntu" font-style="italic" font-size="41.0" fill="#FEFFFE" transform="matrix(1.00, 0.00, -0.00, -1.00, 766.9, 505.6)">e</text><text xml:space="preserve" font-family="Ubuntu-Italic,Ubuntu" font-style="italic" font-size="41.0" fill="#FEFFFE" transform="matrix(1.00, 0.00, -0.00, -1.00, 788.3, 505.6)">.</text><text xml:space="preserve" font-family="Ubuntu-Italic,Ubuntu" font-style="italic" font-size="41.0" fill="#FEFFFE" transform="matrix(1.00, 0.00, -0.00, -1.00, 798.5, 505.6)"> </text><text xml:space="preserve" font-family="Ubuntu-Italic,Ubuntu" font-style="italic" font-size="41.0" fill="#FEFFFE" transform="matrix(1.00, 0.00, -0.00, -1.00, 198.7, 458.6)">W</text><text xml:space="preserve" font-family="Ubuntu-Italic,Ubuntu" font-style="italic" font-size="41.0" fill="#FEFFFE" transform="matrix(1.00, 0.00, -0.00, -1.00, 236.2, 458.6)">e</text><text xml:space="preserve" font-family="Ubuntu-Italic,Ubuntu" font-style="italic" font-size="41.0" fill="#FEFFFE" transform="matrix(1.00, 0.00, -0.00, -1.00, 257.6, 458.6)">b</text><text xml:space="preserve" font-family="Ubuntu-Italic,Ubuntu" font-style="italic" font-size="41.0" fill="#FEFFFE" transform="matrix(1.00, 0.00, -0.00, -1.00, 280.5, 458.6)">D</text><text xml:space="preserve" font-family="Ubuntu-Italic,Ubuntu" font-style="italic" font-size="41.0" fill="#FEFFFE" transform="matrix(1.00, 0.00, -0.00, -1.00, 309.0, 458.6)">e</text><text xml:space="preserve" font-family="Ubuntu-Italic,Ubuntu" font-style="italic" font-size="41.0" fill="#FEFFFE" transform="matrix(1.00, 0.00, -0.00, -1.00, 330.4, 458.6)">v</text><text xml:space="preserve" font-family="Ubuntu-Italic,Ubuntu" font-style="italic" font-size="41.0" fill="#FEFFFE" transform="matrix(1.00, 0.00, -0.00, -1.00, 350.3, 458.6)">T</text><text xml:space="preserve" font-family="Ubuntu-Italic,Ubuntu" font-style="italic" font-size="41.0" fill="#FEFFFE" transform="matrix(1.00, 0.00, -0.00, -1.00, 371.2, 458.6)">u</text><text xml:space="preserve" font-family="Ubuntu-Italic,Ubuntu" font-style="italic" font-size="41.0" fill="#FEFFFE" transform="matrix(1.00, 0.00, -0.00, -1.00, 393.9, 458.6)">t</text><text xml:space="preserve" font-family="Ubuntu-Italic,Ubuntu" font-style="italic" font-size="41.0" fill="#FEFFFE" transform="matrix(1.00, 0.00, -0.00, -1.00, 409.8, 458.6)">o</text><text xml:space="preserve" font-family="Ubuntu-Italic,Ubuntu" font-style="italic" font-size="41.0" fill="#FEFFFE" transform="matrix(1.00, 0.00, -0.00, -1.00, 432.8, 458.6)">r</text><text xml:space="preserve" font-family="Ubuntu-Italic,Ubuntu" font-style="italic" font-size="41.0" fill="#FEFFFE" transform="matrix(1.00, 0.00, -0.00, -1.00, 448.2, 458.6)">i</text><text xml:space="preserve" font-family="Ubuntu-Italic,Ubuntu" font-style="italic" font-size="41.0" fill="#FEFFFE" transform="matrix(1.00, 0.00, -0.00, -1.00, 458.6, 458.6)">a</text><text xml:space="preserve" font-family="Ubuntu-Italic,Ubuntu" font-style="italic" font-size="41.0" fill="#FEFFFE" transform="matrix(1.00, 0.00, -0.00, -1.00, 481.0, 458.6)">l</text><text xml:space="preserve" font-family="Ubuntu-Italic,Ubuntu" font-style="italic" font-size="41.0" fill="#FEFFFE" transform="matrix(1.00, 0.00, -0.00, -1.00, 492.5, 458.6)">s</text><text xml:space="preserve" font-family="Ubuntu-Italic,Ubuntu" font-style="italic" font-size="41.0" fill="#FEFFFE" transform="matrix(1.00, 0.00, -0.00, -1.00, 509.6, 458.6)"> </text><text xml:space="preserve" font-family="Ubuntu-Italic,Ubuntu" font-style="italic" font-size="41.0" fill="#FEFFFE" transform="matrix(1.00, 0.00, -0.00, -1.00, 519.2, 458.6)">c</text><text xml:space="preserve" font-family="Ubuntu-Italic,Ubuntu" font-style="italic" font-size="41.0" fill="#FEFFFE" transform="matrix(1.00, 0.00, -0.00, -1.00, 537.4, 458.6)">o</text><text xml:space="preserve" font-family="Ubuntu-Italic,Ubuntu" font-style="italic" font-size="41.0" fill="#FEFFFE" transform="matrix(1.00, 0.00, -0.00, -1.00, 560.4, 458.6)">n</text><text xml:space="preserve" font-family="Ubuntu-Italic,Ubuntu" font-style="italic" font-size="41.0" fill="#FEFFFE" transform="matrix(1.00, 0.00, -0.00, -1.00, 583.1, 458.6)">t</text><text xml:space="preserve" font-family="Ubuntu-Italic,Ubuntu" font-style="italic" font-size="41.0" fill="#FEFFFE" transform="matrix(1.00, 0.00, -0.00, -1.00, 599.0, 458.6)">a</text><text xml:space="preserve" font-family="Ubuntu-Italic,Ubuntu" font-style="italic" font-size="41.0" fill="#FEFFFE" transform="matrix(1.00, 0.00, -0.00, -1.00, 621.5, 458.6)">i</text><text xml:space="preserve" font-family="Ubuntu-Italic,Ubuntu" font-style="italic" font-size="41.0" fill="#FEFFFE" transform="matrix(1.00, 0.00, -0.00, -1.00, 631.9, 458.6)">n</text><text xml:space="preserve" font-family="Ubuntu-Italic,Ubuntu" font-style="italic" font-size="41.0" fill="#FEFFFE" transform="matrix(1.00, 0.00, -0.00, -1.00, 654.6, 458.6)">s</text><text xml:space="preserve" font-family="Ubuntu-Italic,Ubuntu" font-style="italic" font-size="41.0" fill="#FEFFFE" transform="matrix(1.00, 0.00, -0.00, -1.00, 671.7, 458.6)"> </text><text xml:space="preserve" font-family="Ubuntu-Italic,Ubuntu" font-style="italic" font-size="41.0" fill="#FEFFFE" transform="matrix(1.00, 0.00, -0.00, -1.00, 681.3, 458.6)">a</text><text xml:space="preserve" font-family="Ubuntu-Italic,Ubuntu" font-style="italic" font-size="41.0" fill="#FEFFFE" transform="matrix(1.00, 0.00, -0.00, -1.00, 703.8, 458.6)"> </text><text xml:space="preserve" font-family="Ubuntu-Italic,Ubuntu" font-style="italic" font-size="41.0" fill="#FEFFFE" transform="matrix(1.00, 0.00, -0.00, -1.00, 713.4, 458.6)">m</text><text xml:space="preserve" font-family="Ubuntu-Italic,Ubuntu" font-style="italic" font-size="41.0" fill="#FEFFFE" transform="matrix(1.00, 0.00, -0.00, -1.00, 747.5, 458.6)">i</text><text xml:space="preserve" font-family="Ubuntu-Italic,Ubuntu" font-style="italic" font-size="41.0" fill="#FEFFFE" transform="matrix(1.00, 0.00, -0.00, -1.00, 757.9, 458.6)">x</text><text xml:space="preserve" font-family="Ubuntu-Italic,Ubuntu" font-style="italic" font-size="41.0" fill="#FEFFFE" transform="matrix(1.00, 0.00, -0.00, -1.00, 777.5, 458.6)"> </text><text xml:space="preserve" font-family="Ubuntu-Italic,Ubuntu" font-style="italic" font-size="41.0" fill="#FEFFFE" transform="matrix(1.00, 0.00, -0.00, -1.00, 787.1, 458.6)">o</text><text xml:space="preserve" font-family="Ubuntu-Italic,Ubuntu" font-style="italic" font-size="41.0" fill="#FEFFFE" transform="matrix(1.00, 0.00, -0.00, -1.00, 810.0, 458.6)">f</text><text xml:space="preserve" font-family="Ubuntu-Italic,Ubuntu" font-style="italic" font-size="41.0" fill="#FEFFFE" transform="matrix(1.00, 0.00, -0.00, -1.00, 825.3, 458.6)"> </text><text xml:space="preserve" font-family="Ubuntu-Italic,Ubuntu" font-style="italic" font-size="41.0" fill="#FEFFFE" transform="matrix(1.00, 0.00, -0.00, -1.00, 285.4, 411.6)">v</text><text xml:space="preserve" font-family="Ubuntu-Italic,Ubuntu" font-style="italic" font-size="41.0" fill="#FEFFFE" transform="matrix(1.00, 0.00, -0.00, -1.00, 305.3, 411.6)">i</text><text xml:space="preserve" font-family="Ubuntu-Italic,Ubuntu" font-style="italic" font-size="41.0" fill="#FEFFFE" transform="matrix(1.00, 0.00, -0.00, -1.00, 315.7, 411.6)">d</text><text xml:space="preserve" font-family="Ubuntu-Italic,Ubuntu" font-style="italic" font-size="41.0" fill="#FEFFFE" transform="matrix(1.00, 0.00, -0.00, -1.00, 338.2, 411.6)">e</text><text xml:space="preserve" font-family="Ubuntu-Italic,Ubuntu" font-style="italic" font-size="41.0" fill="#FEFFFE" transform="matrix(1.00, 0.00, -0.00, -1.00, 359.6, 411.6)">o</text><text xml:space="preserve" font-family="Ubuntu-Italic,Ubuntu" font-style="italic" font-size="41.0" fill="#FEFFFE" transform="matrix(1.00, 0.00, -0.00, -1.00, 382.6, 411.6)">s</text><text xml:space="preserve" font-family="Ubuntu-Italic,Ubuntu" font-style="italic" font-size="41.0" fill="#FEFFFE" transform="matrix(1.00, 0.00, -0.00, -1.00, 399.6, 411.6)">,</text><text xml:space="preserve" font-family="Ubuntu-Italic,Ubuntu" font-style="italic" font-size="41.0" fill="#FEFFFE" transform="matrix(1.00, 0.00, -0.00, -1.00, 409.9, 411.6)"> </text><text xml:space="preserve" font-family="Ubuntu-Italic,Ubuntu" font-style="italic" font-size="41.0" fill="#FEFFFE" transform="matrix(1.00, 0.00, -0.00, -1.00, 419.5, 411.6)">e</text><text xml:space="preserve" font-family="Ubuntu-Italic,Ubuntu" font-style="italic" font-size="41.0" fill="#FEFFFE" transform="matrix(1.00, 0.00, -0.00, -1.00, 440.9, 411.6)">x</text><text xml:space="preserve" font-family="Ubuntu-Italic,Ubuntu" font-style="italic" font-size="41.0" fill="#FEFFFE" transform="matrix(1.00, 0.00, -0.00, -1.00, 460.5, 411.6)">p</text><text xml:space="preserve" font-family="Ubuntu-Italic,Ubuntu" font-style="italic" font-size="41.0" fill="#FEFFFE" transform="matrix(1.00, 0.00, -0.00, -1.00, 483.0, 411.6)">l</text><text xml:space="preserve" font-family="Ubuntu-Italic,Ubuntu" font-style="italic" font-size="41.0" fill="#FEFFFE" transform="matrix(1.00, 0.00, -0.00, -1.00, 494.0, 411.6)">a</text><text xml:space="preserve" font-family="Ubuntu-Italic,Ubuntu" font-style="italic" font-size="41.0" fill="#FEFFFE" transform="matrix(1.00, 0.00, -0.00, -1.00, 516.5, 411.6)">n</text><text xml:space="preserve" font-family="Ubuntu-Italic,Ubuntu" font-style="italic" font-size="41.0" fill="#FEFFFE" transform="matrix(1.00, 0.00, -0.00, -1.00, 539.2, 411.6)">a</text><text xml:space="preserve" font-family="Ubuntu-Italic,Ubuntu" font-style="italic" font-size="41.0" fill="#FEFFFE" transform="matrix(1.00, 0.00, -0.00, -1.00, 561.7, 411.6)">t</text><text xml:space="preserve" font-family="Ubuntu-Italic,Ubuntu" font-style="italic" font-size="41.0" fill="#FEFFFE" transform="matrix(1.00, 0.00, -0.00, -1.00, 577.8, 411.6)">i</text><text xml:space="preserve" font-family="Ubuntu-Italic,Ubuntu" font-style="italic" font-size="41.0" fill="#FEFFFE" transform="matrix(1.00, 0.00, -0.00, -1.00, 588.2, 411.6)">o</text><text xml:space="preserve" font-family="Ubuntu-Italic,Ubuntu" font-style="italic" font-size="41.0" fill="#FEFFFE" transform="matrix(1.00, 0.00, -0.00, -1.00, 611.1, 411.6)">n</text><text xml:space="preserve" font-family="Ubuntu-Italic,Ubuntu" font-style="italic" font-size="41.0" fill="#FEFFFE" transform="matrix(1.00, 0.00, -0.00, -1.00, 633.9, 411.6)">s</text><text xml:space="preserve" font-family="Ubuntu-Italic,Ubuntu" font-style="italic" font-size="41.0" fill="#FEFFFE" transform="matrix(1.00, 0.00, -0.00, -1.00, 650.9, 411.6)">,</text><text xml:space="preserve" font-family="Ubuntu-Italic,Ubuntu" font-style="italic" font-size="41.0" fill="#FEFFFE" transform="matrix(1.00, 0.00, -0.00, -1.00, 661.2, 411.6)"> </text><text xml:space="preserve" font-family="Ubuntu-Italic,Ubuntu" font-style="italic" font-size="41.0" fill="#FEFFFE" transform="matrix(1.00, 0.00, -0.00, -1.00, 670.8, 411.6)">a</text><text xml:space="preserve" font-family="Ubuntu-Italic,Ubuntu" font-style="italic" font-size="41.0" fill="#FEFFFE" transform="matrix(1.00, 0.00, -0.00, -1.00, 693.3, 411.6)">n</text><text xml:space="preserve" font-family="Ubuntu-Italic,Ubuntu" font-style="italic" font-size="41.0" fill="#FEFFFE" transform="matrix(1.00, 0.00, -0.00, -1.00, 716.0, 411.6)">d</text><text xml:space="preserve" font-family="Ubuntu-Italic,Ubuntu" font-style="italic" font-size="41.0" fill="#FEFFFE" transform="matrix(1.00, 0.00, -0.00, -1.00, 738.6, 411.6)"> </text><text xml:space="preserve" font-family="Ubuntu-Italic,Ubuntu" font-style="italic" font-size="41.0" fill="#FEFFFE" transform="matrix(1.00, 0.00, -0.00, -1.00, 175.1, 364.6)">p</text><text xml:space="preserve" font-family="Ubuntu-Italic,Ubuntu" font-style="italic" font-size="41.0" fill="#FEFFFE" transform="matrix(1.00, 0.00, -0.00, -1.00, 197.6, 364.6)">r</text><text xml:space="preserve" font-family="Ubuntu-Italic,Ubuntu" font-style="italic" font-size="41.0" fill="#FEFFFE" transform="matrix(1.00, 0.00, -0.00, -1.00, 212.8, 364.6)">o</text><text xml:space="preserve" font-family="Ubuntu-Italic,Ubuntu" font-style="italic" font-size="41.0" fill="#FEFFFE" transform="matrix(1.00, 0.00, -0.00, -1.00, 235.7, 364.6)">g</text><text xml:space="preserve" font-family="Ubuntu-Italic,Ubuntu" font-style="italic" font-size="41.0" fill="#FEFFFE" transform="matrix(1.00, 0.00, -0.00, -1.00, 258.5, 364.6)">r</text><text xml:space="preserve" font-family="Ubuntu-Italic,Ubuntu" font-style="italic" font-size="41.0" fill="#FEFFFE" transform="matrix(1.00, 0.00, -0.00, -1.00, 273.6, 364.6)">a</text><text xml:space="preserve" font-family="Ubuntu-Italic,Ubuntu" font-style="italic" font-size="41.0" fill="#FEFFFE" transform="matrix(1.00, 0.00, -0.00, -1.00, 296.1, 364.6)">m</text><text xml:space="preserve" font-family="Ubuntu-Italic,Ubuntu" font-style="italic" font-size="41.0" fill="#FEFFFE" transform="matrix(1.00, 0.00, -0.00, -1.00, 330.2, 364.6)">m</text><text xml:space="preserve" font-family="Ubuntu-Italic,Ubuntu" font-style="italic" font-size="41.0" fill="#FEFFFE" transform="matrix(1.00, 0.00, -0.00, -1.00, 364.3, 364.6)">i</text><text xml:space="preserve" font-family="Ubuntu-Italic,Ubuntu" font-style="italic" font-size="41.0" fill="#FEFFFE" transform="matrix(1.00, 0.00, -0.00, -1.00, 374.6, 364.6)">n</text><text xml:space="preserve" font-family="Ubuntu-Italic,Ubuntu" font-style="italic" font-size="41.0" fill="#FEFFFE" transform="matrix(1.00, 0.00, -0.00, -1.00, 397.4, 364.6)">g</text><text xml:space="preserve" font-family="Ubuntu-Italic,Ubuntu" font-style="italic" font-size="41.0" fill="#FEFFFE" transform="matrix(1.00, 0.00, -0.00, -1.00, 420.1, 364.6)"> </text><text xml:space="preserve" font-family="Ubuntu-Italic,Ubuntu" font-style="italic" font-size="41.0" fill="#FEFFFE" transform="matrix(1.00, 0.00, -0.00, -1.00, 429.8, 364.6)">c</text><text xml:space="preserve" font-family="Ubuntu-Italic,Ubuntu" font-style="italic" font-size="41.0" fill="#FEFFFE" transform="matrix(1.00, 0.00, -0.00, -1.00, 448.4, 364.6)">h</text><text xml:space="preserve" font-family="Ubuntu-Italic,Ubuntu" font-style="italic" font-size="41.0" fill="#FEFFFE" transform="matrix(1.00, 0.00, -0.00, -1.00, 471.2, 364.6)">a</text><text xml:space="preserve" font-family="Ubuntu-Italic,Ubuntu" font-style="italic" font-size="41.0" fill="#FEFFFE" transform="matrix(1.00, 0.00, -0.00, -1.00, 493.7, 364.6)">l</text><text xml:space="preserve" font-family="Ubuntu-Italic,Ubuntu" font-style="italic" font-size="41.0" fill="#FEFFFE" transform="matrix(1.00, 0.00, -0.00, -1.00, 504.9, 364.6)">l</text><text xml:space="preserve" font-family="Ubuntu-Italic,Ubuntu" font-style="italic" font-size="41.0" fill="#FEFFFE" transform="matrix(1.00, 0.00, -0.00, -1.00, 516.1, 364.6)">e</text><text xml:space="preserve" font-family="Ubuntu-Italic,Ubuntu" font-style="italic" font-size="41.0" fill="#FEFFFE" transform="matrix(1.00, 0.00, -0.00, -1.00, 537.5, 364.6)">n</text><text xml:space="preserve" font-family="Ubuntu-Italic,Ubuntu" font-style="italic" font-size="41.0" fill="#FEFFFE" transform="matrix(1.00, 0.00, -0.00, -1.00, 560.2, 364.6)">g</text><text xml:space="preserve" font-family="Ubuntu-Italic,Ubuntu" font-style="italic" font-size="41.0" fill="#FEFFFE" transform="matrix(1.00, 0.00, -0.00, -1.00, 582.9, 364.6)">e</text><text xml:space="preserve" font-family="Ubuntu-Italic,Ubuntu" font-style="italic" font-size="41.0" fill="#FEFFFE" transform="matrix(1.00, 0.00, -0.00, -1.00, 604.3, 364.6)">s</text><text xml:space="preserve" font-family="Ubuntu-Italic,Ubuntu" font-style="italic" font-size="41.0" fill="#FEFFFE" transform="matrix(1.00, 0.00, -0.00, -1.00, 621.4, 364.6)"> </text><text xml:space="preserve" font-family="Ubuntu-Italic,Ubuntu" font-style="italic" font-size="41.0" fill="#FEFFFE" transform="matrix(1.00, 0.00, -0.00, -1.00, 631.0, 364.6)">w</text><text xml:space="preserve" font-family="Ubuntu-Italic,Ubuntu" font-style="italic" font-size="41.0" fill="#FEFFFE" transform="matrix(1.00, 0.00, -0.00, -1.00, 663.5, 364.6)">h</text><text xml:space="preserve" font-family="Ubuntu-Italic,Ubuntu" font-style="italic" font-size="41.0" fill="#FEFFFE" transform="matrix(1.00, 0.00, -0.00, -1.00, 686.2, 364.6)">i</text><text xml:space="preserve" font-family="Ubuntu-Italic,Ubuntu" font-style="italic" font-size="41.0" fill="#FEFFFE" transform="matrix(1.00, 0.00, -0.00, -1.00, 696.6, 364.6)">c</text><text xml:space="preserve" font-family="Ubuntu-Italic,Ubuntu" font-style="italic" font-size="41.0" fill="#FEFFFE" transform="matrix(1.00, 0.00, -0.00, -1.00, 715.3, 364.6)">h</text><text xml:space="preserve" font-family="Ubuntu-Italic,Ubuntu" font-style="italic" font-size="41.0" fill="#FEFFFE" transform="matrix(1.00, 0.00, -0.00, -1.00, 738.1, 364.6)"> </text><text xml:space="preserve" font-family="Ubuntu-Italic,Ubuntu" font-style="italic" font-size="41.0" fill="#FEFFFE" transform="matrix(1.00, 0.00, -0.00, -1.00, 747.7, 364.6)">t</text><text xml:space="preserve" font-family="Ubuntu-Italic,Ubuntu" font-style="italic" font-size="41.0" fill="#FEFFFE" transform="matrix(1.00, 0.00, -0.00, -1.00, 763.6, 364.6)">e</text><text xml:space="preserve" font-family="Ubuntu-Italic,Ubuntu" font-style="italic" font-size="41.0" fill="#FEFFFE" transform="matrix(1.00, 0.00, -0.00, -1.00, 785.0, 364.6)">a</text><text xml:space="preserve" font-family="Ubuntu-Italic,Ubuntu" font-style="italic" font-size="41.0" fill="#FEFFFE" transform="matrix(1.00, 0.00, -0.00, -1.00, 807.5, 364.6)">c</text><text xml:space="preserve" font-family="Ubuntu-Italic,Ubuntu" font-style="italic" font-size="41.0" fill="#FEFFFE" transform="matrix(1.00, 0.00, -0.00, -1.00, 826.1, 364.6)">h</text><text xml:space="preserve" font-family="Ubuntu-Italic,Ubuntu" font-style="italic" font-size="41.0" fill="#FEFFFE" transform="matrix(1.00, 0.00, -0.00, -1.00, 848.9, 364.6)"> </text><text xml:space="preserve" font-family="Ubuntu-Italic,Ubuntu" font-style="italic" font-size="41.0" fill="#FEFFFE" transform="matrix(1.00, 0.00, -0.00, -1.00, 372.8, 317.6)">H</text><text xml:space="preserve" font-family="Ubuntu-Italic,Ubuntu" font-style="italic" font-size="41.0" fill="#FEFFFE" transform="matrix(1.00, 0.00, -0.00, -1.00, 400.9, 317.6)">T</text><text xml:space="preserve" font-family="Ubuntu-Italic,Ubuntu" font-style="italic" font-size="41.0" fill="#FEFFFE" transform="matrix(1.00, 0.00, -0.00, -1.00, 423.5, 317.6)">M</text><text xml:space="preserve" font-family="Ubuntu-Italic,Ubuntu" font-style="italic" font-size="41.0" fill="#FEFFFE" transform="matrix(1.00, 0.00, -0.00, -1.00, 458.4, 317.6)">L</text><text xml:space="preserve" font-family="Ubuntu-Italic,Ubuntu" font-style="italic" font-size="41.0" fill="#FEFFFE" transform="matrix(1.00, 0.00, -0.00, -1.00, 479.3, 317.6)"> </text><text xml:space="preserve" font-family="Ubuntu-Italic,Ubuntu" font-style="italic" font-size="41.0" fill="#FEFFFE" transform="matrix(1.00, 0.00, -0.00, -1.00, 489.0, 317.6)">a</text><text xml:space="preserve" font-family="Ubuntu-Italic,Ubuntu" font-style="italic" font-size="41.0" fill="#FEFFFE" transform="matrix(1.00, 0.00, -0.00, -1.00, 511.4, 317.6)">n</text><text xml:space="preserve" font-family="Ubuntu-Italic,Ubuntu" font-style="italic" font-size="41.0" fill="#FEFFFE" transform="matrix(1.00, 0.00, -0.00, -1.00, 534.2, 317.6)">d</text><text xml:space="preserve" font-family="Ubuntu-Italic,Ubuntu" font-style="italic" font-size="41.0" fill="#FEFFFE" transform="matrix(1.00, 0.00, -0.00, -1.00, 556.8, 317.6)"> </text><text xml:space="preserve" font-family="Ubuntu-Italic,Ubuntu" font-style="italic" font-size="41.0" fill="#FEFFFE" transform="matrix(1.00, 0.00, -0.00, -1.00, 566.4, 317.6)">P</text><text xml:space="preserve" font-family="Ubuntu-Italic,Ubuntu" font-style="italic" font-size="41.0" fill="#FEFFFE" transform="matrix(1.00, 0.00, -0.00, -1.00, 590.8, 317.6)">H</text><text xml:space="preserve" font-family="Ubuntu-Italic,Ubuntu" font-style="italic" font-size="41.0" fill="#FEFFFE" transform="matrix(1.00, 0.00, -0.00, -1.00, 618.9, 317.6)">P</text><text xml:space="preserve" font-family="Ubuntu-Italic,Ubuntu" font-style="italic" font-size="41.0" fill="#FEFFFE" transform="matrix(1.00, 0.00, -0.00, -1.00, 641.0, 317.6)">.</text></g></g><image xlink:href="../../64E11177-5647-4135-B3B8-168B338D32CB/assets/0FF170F1439E00BD6E5B9F3FC9FEB2CA.png" width="1424.00" height="936.00" transform="matrix(0.61, 0.01, 0.01, -0.61, 72.2, 747.4)"></image><image xlink:href="../../64E11177-5647-4135-B3B8-168B338D32CB/assets/750764C64E5950F40020374D6466C796.png" width="1424.00" height="936.00" transform="matrix(0.61, -0.03, -0.03, -0.61, 103.5, 768.0)"></image><g><clipPath id="clip0x600001aabac0"><path d="M 84.0 747.0 L 956.0 747.0 L 956.0 174.0 L 84.0 174.0 Z M 84.0 746.7 "></path></clipPath><g clip-path="url(#clip0x600001aabac0)"><image xlink:href="../../64E11177-5647-4135-B3B8-168B338D32CB/assets/EC4B2C71556F11B14300A986342D27DC.png" width="1424.00" height="936.00" transform="matrix(0.61, 0.00, -0.00, -0.61, 84.0, 746.7)"></image></g></g><text xml:space="preserve" font-family="HelveticaNeue-Light,Helvetica Neue" font-size="36.0" fill="#FFFFFF" transform="matrix(1.00, 0.00, -0.00, -1.00, 72.7, 194.2)">P</text><text xml:space="preserve" font-family="HelveticaNeue-Light,Helvetica Neue" font-size="36.0" fill="#FFFFFF" transform="matrix(1.00, 0.00, -0.00, -1.00, 95.3, 194.2)">r</text><text xml:space="preserve" font-family="HelveticaNeue-Light,Helvetica Neue" font-size="36.0" fill="#FFFFFF" transform="matrix(1.00, 0.00, -0.00, -1.00, 106.0, 194.2)">o</text><text xml:space="preserve" font-family="HelveticaNeue-Light,Helvetica Neue" font-size="36.0" fill="#FFFFFF" transform="matrix(1.00, 0.00, -0.00, -1.00, 126.0, 194.2)">g</text><text xml:space="preserve" font-family="HelveticaNeue-Light,Helvetica Neue" font-size="36.0" fill="#FFFFFF" transform="matrix(1.00, 0.00, -0.00, -1.00, 146.1, 194.2)">r</text><text xml:space="preserve" font-family="HelveticaNeue-Light,Helvetica Neue" font-size="36.0" fill="#FFFFFF" transform="matrix(1.00, 0.00, -0.00, -1.00, 157.4, 194.2)">a</text><text xml:space="preserve" font-family="HelveticaNeue-Light,Helvetica Neue" font-size="36.0" fill="#FFFFFF" transform="matrix(1.00, 0.00, -0.00, -1.00, 176.1, 194.2)">m</text><text xml:space="preserve" font-family="HelveticaNeue-Light,Helvetica Neue" font-size="36.0" fill="#FFFFFF" transform="matrix(1.00, 0.00, -0.00, -1.00, 206.1, 194.2)">m</text><text xml:space="preserve" font-family="HelveticaNeue-Light,Helvetica Neue" font-size="36.0" fill="#FFFFFF" transform="matrix(1.00, 0.00, -0.00, -1.00, 236.1, 194.2)">i</text><text xml:space="preserve" font-family="HelveticaNeue-Light,Helvetica Neue" font-size="36.0" fill="#FFFFFF" transform="matrix(1.00, 0.00, -0.00, -1.00, 242.7, 194.2)">n</text><text xml:space="preserve" font-family="HelveticaNeue-Light,Helvetica Neue" font-size="36.0" fill="#FFFFFF" transform="matrix(1.00, 0.00, -0.00, -1.00, 262.0, 194.2)">g</text><text xml:space="preserve" font-family="HelveticaNeue-Light,Helvetica Neue" font-size="36.0" fill="#FFFFFF" transform="matrix(1.00, 0.00, -0.00, -1.00, 282.1, 194.2)"> </text><text xml:space="preserve" font-family="HelveticaNeue-Light,Helvetica Neue" font-size="36.0" fill="#FFFFFF" transform="matrix(1.00, 0.00, -0.00, -1.00, 292.1, 194.2)">c</text><text xml:space="preserve" font-family="HelveticaNeue-Light,Helvetica Neue" font-size="36.0" fill="#FFFFFF" transform="matrix(1.00, 0.00, -0.00, -1.00, 310.8, 194.2)">h</text><text xml:space="preserve" font-family="HelveticaNeue-Light,Helvetica Neue" font-size="36.0" fill="#FFFFFF" transform="matrix(1.00, 0.00, -0.00, -1.00, 330.1, 194.2)">a</text><text xml:space="preserve" font-family="HelveticaNeue-Light,Helvetica Neue" font-size="36.0" fill="#FFFFFF" transform="matrix(1.00, 0.00, -0.00, -1.00, 348.8, 194.2)">l</text><text xml:space="preserve" font-family="HelveticaNeue-Light,Helvetica Neue" font-size="36.0" fill="#FFFFFF" transform="matrix(1.00, 0.00, -0.00, -1.00, 355.4, 194.2)">l</text><text xml:space="preserve" font-family="HelveticaNeue-Light,Helvetica Neue" font-size="36.0" fill="#FFFFFF" transform="matrix(1.00, 0.00, -0.00, -1.00, 362.1, 194.2)">e</text><text xml:space="preserve" font-family="HelveticaNeue-Light,Helvetica Neue" font-size="36.0" fill="#FFFFFF" transform="matrix(1.00, 0.00, -0.00, -1.00, 380.8, 194.2)">n</text><text xml:space="preserve" font-family="HelveticaNeue-Light,Helvetica Neue" font-size="36.0" fill="#FFFFFF" transform="matrix(1.00, 0.00, -0.00, -1.00, 400.1, 194.2)">g</text><text xml:space="preserve" font-family="HelveticaNeue-Light,Helvetica Neue" font-size="36.0" fill="#FFFFFF" transform="matrix(1.00, 0.00, -0.00, -1.00, 420.1, 194.2)">e</text><text xml:space="preserve" font-family="HelveticaNeue-Light,Helvetica Neue" font-size="36.0" fill="#FFFFFF" transform="matrix(1.00, 0.00, -0.00, -1.00, 438.8, 194.2)"> </text><text xml:space="preserve" font-family="HelveticaNeue-Light,Helvetica Neue" font-size="36.0" fill="#FFFFFF" transform="matrix(1.00, 0.00, -0.00, -1.00, 448.8, 194.2)">-</text><text xml:space="preserve" font-family="HelveticaNeue-Light,Helvetica Neue" font-size="36.0" fill="#FFFFFF" transform="matrix(1.00, 0.00, -0.00, -1.00, 462.1, 194.2)"> </text><text xml:space="preserve" font-family="HelveticaNeue-Light,Helvetica Neue" font-size="36.0" fill="#FFFFFF" transform="matrix(1.00, 0.00, -0.00, -1.00, 472.1, 194.2)">m</text><text xml:space="preserve" font-family="HelveticaNeue-Light,Helvetica Neue" font-size="36.0" fill="#FFFFFF" transform="matrix(1.00, 0.00, -0.00, -1.00, 502.1, 194.2)">a</text><text xml:space="preserve" font-family="HelveticaNeue-Light,Helvetica Neue" font-size="36.0" fill="#FFFFFF" transform="matrix(1.00, 0.00, -0.00, -1.00, 520.8, 194.2)">k</text><text xml:space="preserve" font-family="HelveticaNeue-Light,Helvetica Neue" font-size="36.0" fill="#FFFFFF" transform="matrix(1.00, 0.00, -0.00, -1.00, 538.8, 194.2)">e</text><text xml:space="preserve" font-family="HelveticaNeue-Light,Helvetica Neue" font-size="36.0" fill="#FFFFFF" transform="matrix(1.00, 0.00, -0.00, -1.00, 557.5, 194.2)"> </text><text xml:space="preserve" font-family="HelveticaNeue-Light,Helvetica Neue" font-size="36.0" fill="#FFFFFF" transform="matrix(1.00, 0.00, -0.00, -1.00, 567.5, 194.2)">a</text><text xml:space="preserve" font-family="HelveticaNeue-Light,Helvetica Neue" font-size="36.0" fill="#FFFFFF" transform="matrix(1.00, 0.00, -0.00, -1.00, 586.2, 194.2)"> </text><text xml:space="preserve" font-family="HelveticaNeue-Light,Helvetica Neue" font-size="36.0" fill="#FFFFFF" transform="matrix(1.00, 0.00, -0.00, -1.00, 596.2, 194.2)">w</text><text xml:space="preserve" font-family="HelveticaNeue-Light,Helvetica Neue" font-size="36.0" fill="#FFFFFF" transform="matrix(1.00, 0.00, -0.00, -1.00, 622.9, 194.2)">e</text><text xml:space="preserve" font-family="HelveticaNeue-Light,Helvetica Neue" font-size="36.0" fill="#FFFFFF" transform="matrix(1.00, 0.00, -0.00, -1.00, 641.6, 194.2)">b</text><text xml:space="preserve" font-family="HelveticaNeue-Light,Helvetica Neue" font-size="36.0" fill="#FFFFFF" transform="matrix(1.00, 0.00, -0.00, -1.00, 662.2, 194.2)">p</text><text xml:space="preserve" font-family="HelveticaNeue-Light,Helvetica Neue" font-size="36.0" fill="#FFFFFF" transform="matrix(1.00, 0.00, -0.00, -1.00, 682.9, 194.2)">a</text><text xml:space="preserve" font-family="HelveticaNeue-Light,Helvetica Neue" font-size="36.0" fill="#FFFFFF" transform="matrix(1.00, 0.00, -0.00, -1.00, 701.6, 194.2)">g</text><text xml:space="preserve" font-family="HelveticaNeue-Light,Helvetica Neue" font-size="36.0" fill="#FFFFFF" transform="matrix(1.00, 0.00, -0.00, -1.00, 721.6, 194.2)">e</text><text xml:space="preserve" font-family="HelveticaNeue-Light,Helvetica Neue" font-size="36.0" fill="#FFFFFF" transform="matrix(1.00, 0.00, -0.00, -1.00, 740.3, 194.2)"> </text><text xml:space="preserve" font-family="HelveticaNeue-Light,Helvetica Neue" font-size="36.0" fill="#FFFFFF" transform="matrix(1.00, 0.00, -0.00, -1.00, 750.3, 194.2)">a</text><text xml:space="preserve" font-family="HelveticaNeue-Light,Helvetica Neue" font-size="36.0" fill="#FFFFFF" transform="matrix(1.00, 0.00, -0.00, -1.00, 769.0, 194.2)">n</text><text xml:space="preserve" font-family="HelveticaNeue-Light,Helvetica Neue" font-size="36.0" fill="#FFFFFF" transform="matrix(1.00, 0.00, -0.00, -1.00, 788.3, 194.2)">d</text><text xml:space="preserve" font-family="HelveticaNeue-Light,Helvetica Neue" font-size="36.0" fill="#FFFFFF" transform="matrix(1.00, 0.00, -0.00, -1.00, 809.0, 194.2)"> </text><text xml:space="preserve" font-family="HelveticaNeue-Light,Helvetica Neue" font-size="36.0" fill="#FFFFFF" transform="matrix(1.00, 0.00, -0.00, -1.00, 819.0, 194.2)">s</text><text xml:space="preserve" font-family="HelveticaNeue-Light,Helvetica Neue" font-size="36.0" fill="#FFFFFF" transform="matrix(1.00, 0.00, -0.00, -1.00, 836.3, 194.2)">e</text><text xml:space="preserve" font-family="HelveticaNeue-Light,Helvetica Neue" font-size="36.0" fill="#FFFFFF" transform="matrix(1.00, 0.00, -0.00, -1.00, 855.0, 194.2)">e</text><text xml:space="preserve" font-family="HelveticaNeue-Light,Helvetica Neue" font-size="36.0" fill="#FFFFFF" transform="matrix(1.00, 0.00, -0.00, -1.00, 873.7, 194.2)"> </text><text xml:space="preserve" font-family="HelveticaNeue-Light,Helvetica Neue" font-size="36.0" fill="#FFFFFF" transform="matrix(1.00, 0.00, -0.00, -1.00, 883.7, 194.2)">r</text><text xml:space="preserve" font-family="HelveticaNeue-Light,Helvetica Neue" font-size="36.0" fill="#FFFFFF" transform="matrix(1.00, 0.00, -0.00, -1.00, 894.4, 194.2)">e</text><text xml:space="preserve" font-family="HelveticaNeue-Light,Helvetica Neue" font-size="36.0" fill="#FFFFFF" transform="matrix(1.00, 0.00, -0.00, -1.00, 913.0, 194.2)">s</text><text xml:space="preserve" font-family="HelveticaNeue-Light,Helvetica Neue" font-size="36.0" fill="#FFFFFF" transform="matrix(1.00, 0.00, -0.00, -1.00, 930.4, 194.2)">u</text><text xml:space="preserve" font-family="HelveticaNeue-Light,Helvetica Neue" font-size="36.0" fill="#FFFFFF" transform="matrix(1.00, 0.00, -0.00, -1.00, 949.7, 194.2)">l</text><text xml:space="preserve" font-family="HelveticaNeue-Light,Helvetica Neue" font-size="36.0" fill="#FFFFFF" transform="matrix(1.00, 0.00, -0.00, -1.00, 956.3, 194.2)">t</text></g></svg>