<?xml version="1.0" encoding="UTF-8" standalone="no"?><svg xmlns="http://www.w3.org/2000/svg" xmlns:xlink="http://www.w3.org/1999/xlink" clip-rule="evenodd" stroke-miterlimit="10" viewBox="0 0 632 583"><desc>SVG generated by Keynote</desc><defs><pattern id="patternP1" patternUnits="userSpaceOnUse" width="600" height="600" viewBox="0 0 600 600"><image xlink:href="8B52AE8A4F27118B2EE18AA32C96F203.jpeg" width="600.00" height="600.00"></image></pattern><pattern id="patternP2" patternUnits="userSpaceOnUse" width="600" height="600" viewBox="0 0 600 600"><image xlink:href="8B8EB68E0758C1A5E1DE3FFF727D6F58.jpeg" width="600.00" height="600.00"></image></pattern><pattern id="patternP3" patternUnits="userSpaceOnUse" width="600" height="600" viewBox="0 0 600 600"><image xlink:href="EDD93831A365C0EB5E271D4A0E03B4EC.jpeg" width="600.00" height="600.00"></image></pattern></defs><g transform="matrix(1.00, 0.00, -0.00, -1.00, 0.0, 583.0)"><g><clipPath id="clip0x6080016b6aa0"><path d="M 42.8 53.2 L 571.8 53.2 L 571.8 582.2 L 42.8 582.2 Z M 42.8 53.2 "></path></clipPath><g clip-path="url(#clip0x6080016b6aa0)"><path d="M 43.0 582.0 L 572.0 582.0 L 572.0 53.0 L 43.0 53.0 Z M 43.0 582.0 " fill="#000000" fill-opacity="0.00"></path></g></g><image xlink:href="89E2AED52A361994A9BFB1FBF8069CB4.png" width="526.00" height="520.00" transform="matrix(1.00, 0.00, -0.00, -1.00, 46.0, 573.0)"></image><g><clipPath id="clip0x6000016a7d40"><path d="M 42.8 53.2 L 571.8 53.2 L 571.8 582.2 L 42.8 582.2 Z M 42.8 53.2 "></path></clipPath><g clip-path="url(#clip0x6000016a7d40)"><g><g><clipPath id="clip0x6000018a0a80"><path d="M 293.0 328.0 L 293.0 571.0 C 158.8 571.0 50.0 462.2 50.0 328.0 C 50.0 285.3 61.2 243.4 82.6 206.5 Z M 293.0 328.0 "></path></clipPath><g clip-path="url(#clip0x6000018a0a80)"><g><clipPath id="clip0x6000018bf020"><path d="M 38.0 47.0 L 576.0 47.0 L 576.0 589.0 L 38.0 589.0 Z M 38.0 47.0 "></path></clipPath><g clip-path="url(#clip0x6000018bf020)"><path d="M 50.0 206.5 L 293.0 206.5 L 293.0 571.0 L 50.0 571.0 Z M 50.0 206.5 " fill="url(#patternP1)"></path></g></g></g></g><g><clipPath id="clip0x6000016a8340"><path d="M 307.0 303.0 L 96.6 181.5 C 163.7 65.3 312.3 25.5 428.5 92.6 C 465.4 113.9 496.1 144.6 517.4 181.5 Z M 307.0 303.0 "></path></clipPath><g clip-path="url(#clip0x6000016a8340)"><g><clipPath id="clip0x6000016a77a0"><path d="M 38.0 47.0 L 576.0 47.0 L 576.0 589.0 L 38.0 589.0 Z M 38.0 47.0 "></path></clipPath><g clip-path="url(#clip0x6000016a77a0)"><path d="M 96.6 47.0 L 517.4 47.0 L 517.4 303.0 L 96.6 303.0 Z M 96.6 47.0 " fill="url(#patternP2)"></path></g></g></g></g><g><clipPath id="clip0x6000018b5900"><path d="M 322.0 328.0 L 532.4 206.5 C 599.5 322.7 559.7 471.3 443.5 538.4 C 406.6 559.8 364.7 571.0 322.0 571.0 Z M 322.0 328.0 "></path></clipPath><g clip-path="url(#clip0x6000018b5900)"><g><clipPath id="clip0x6000016bf6e0"><path d="M 38.0 47.0 L 576.0 47.0 L 576.0 589.0 L 38.0 589.0 Z M 38.0 47.0 "></path></clipPath><g clip-path="url(#clip0x6000016bf6e0)"><path d="M 322.0 206.5 L 576.0 206.5 L 576.0 571.0 L 322.0 571.0 Z M 322.0 206.5 " fill="url(#patternP3)"></path></g></g></g></g></g></g></g><g><clipPath id="clip0x6080018b80c0"><path d="M -6.7 410.4 L 45.1 518.7 L 101.2 491.9 L 49.4 383.6 Z M -6.7 410.4 "></path></clipPath><g clip-path="url(#clip0x6080018b80c0)"><text xml:space="preserve" font-family="Ubuntu-Regular,Ubuntu" font-size="36.0" fill="#000000" transform="matrix(0.43, 0.90, 0.90, -0.43, 37.8, 400.8)">V</text><text xml:space="preserve" font-family="Ubuntu-Regular,Ubuntu" font-size="36.0" fill="#000000" transform="matrix(0.43, 0.90, 0.90, -0.43, 48.1, 422.3)">i</text><text xml:space="preserve" font-family="Ubuntu-Regular,Ubuntu" font-size="36.0" fill="#000000" transform="matrix(0.43, 0.90, 0.90, -0.43, 52.1, 430.6)">s</text><text xml:space="preserve" font-family="Ubuntu-Regular,Ubuntu" font-size="36.0" fill="#000000" transform="matrix(0.43, 0.90, 0.90, -0.43, 59.1, 445.2)">u</text><text xml:space="preserve" font-family="Ubuntu-Regular,Ubuntu" font-size="36.0" fill="#000000" transform="matrix(0.43, 0.90, 0.90, -0.43, 68.0, 464.0)">a</text><text xml:space="preserve" font-family="Ubuntu-Regular,Ubuntu" font-size="36.0" fill="#000000" transform="matrix(0.43, 0.90, 0.90, -0.43, 76.2, 481.1)">l</text></g></g><g><clipPath id="clip0x6000018b5180"><path d="M 568.2 530.7 L 638.7 382.2 L 582.5 355.6 L 512.0 504.1 Z M 568.2 530.7 "></path></clipPath><g clip-path="url(#clip0x6000018b5180)"><text xml:space="preserve" font-family="Ubuntu-Regular,Ubuntu" font-size="36.0" fill="#000000" transform="matrix(0.43, -0.90, -0.90, -0.43, 532.7, 502.2)">A</text><text xml:space="preserve" font-family="Ubuntu-Regular,Ubuntu" font-size="36.0" fill="#000000" transform="matrix(0.43, -0.90, -0.90, -0.43, 542.8, 481.0)">u</text><text xml:space="preserve" font-family="Ubuntu-Regular,Ubuntu" font-size="36.0" fill="#000000" transform="matrix(0.43, -0.90, -0.90, -0.43, 551.7, 462.2)">d</text><text xml:space="preserve" font-family="Ubuntu-Regular,Ubuntu" font-size="36.0" fill="#000000" transform="matrix(0.43, -0.90, -0.90, -0.43, 560.9, 442.9)">i</text><text xml:space="preserve" font-family="Ubuntu-Regular,Ubuntu" font-size="36.0" fill="#000000" transform="matrix(0.43, -0.90, -0.90, -0.43, 564.8, 434.5)">t</text><text xml:space="preserve" font-family="Ubuntu-Regular,Ubuntu" font-size="36.0" fill="#000000" transform="matrix(0.43, -0.90, -0.90, -0.43, 570.9, 421.8)">o</text><text xml:space="preserve" font-family="Ubuntu-Regular,Ubuntu" font-size="36.0" fill="#000000" transform="matrix(0.43, -0.90, -0.90, -0.43, 580.1, 402.5)">r</text><text xml:space="preserve" font-family="Ubuntu-Regular,Ubuntu" font-size="36.0" fill="#000000" transform="matrix(0.43, -0.90, -0.90, -0.43, 586.4, 389.1)">y</text></g></g><g><clipPath id="clip0x6000016bf560"><path d="M 203.9 -5.3 L 410.7 -5.3 L 410.7 56.8 L 203.9 56.8 Z M 203.9 -5.3 "></path></clipPath><g clip-path="url(#clip0x6000016bf560)"><text xml:space="preserve" font-family="Ubuntu-Regular,Ubuntu" font-size="36.0" fill="#000000" transform="matrix(1.00, 0.00, -0.00, -1.00, 214.5, 12.6)">K</text><text xml:space="preserve" font-family="Ubuntu-Regular,Ubuntu" font-size="36.0" fill="#000000" transform="matrix(1.00, 0.00, -0.00, -1.00, 237.3, 12.6)">i</text><text xml:space="preserve" font-family="Ubuntu-Regular,Ubuntu" font-size="36.0" fill="#000000" transform="matrix(1.00, 0.00, -0.00, -1.00, 246.5, 12.6)">n</text><text xml:space="preserve" font-family="Ubuntu-Regular,Ubuntu" font-size="36.0" fill="#000000" transform="matrix(1.00, 0.00, -0.00, -1.00, 267.3, 12.6)">e</text><text xml:space="preserve" font-family="Ubuntu-Regular,Ubuntu" font-size="36.0" fill="#000000" transform="matrix(1.00, 0.00, -0.00, -1.00, 287.6, 12.6)">s</text><text xml:space="preserve" font-family="Ubuntu-Regular,Ubuntu" font-size="36.0" fill="#000000" transform="matrix(1.00, 0.00, -0.00, -1.00, 303.8, 12.6)">t</text><text xml:space="preserve" font-family="Ubuntu-Regular,Ubuntu" font-size="36.0" fill="#000000" transform="matrix(1.00, 0.00, -0.00, -1.00, 318.4, 12.6)">h</text><text xml:space="preserve" font-family="Ubuntu-Regular,Ubuntu" font-size="36.0" fill="#000000" transform="matrix(1.00, 0.00, -0.00, -1.00, 339.1, 12.6)">e</text><text xml:space="preserve" font-family="Ubuntu-Regular,Ubuntu" font-size="36.0" fill="#000000" transform="matrix(1.00, 0.00, -0.00, -1.00, 359.4, 12.6)">t</text><text xml:space="preserve" font-family="Ubuntu-Regular,Ubuntu" font-size="36.0" fill="#000000" transform="matrix(1.00, 0.00, -0.00, -1.00, 374.0, 12.6)">i</text><text xml:space="preserve" font-family="Ubuntu-Regular,Ubuntu" font-size="36.0" fill="#000000" transform="matrix(1.00, 0.00, -0.00, -1.00, 383.2, 12.6)">c</text></g></g><g><clipPath id="clip0x6000016a48c0"><path d="M 155.1 210.6 L 445.5 210.6 L 445.5 415.4 L 155.1 415.4 Z M 155.1 210.6 "></path></clipPath><g clip-path="url(#clip0x6000016a48c0)"><image xlink:href="A5D572D15AB27A24054FDA126EB69806.png" width="288.00" height="203.00" transform="matrix(1.00, 0.00, -0.00, -1.00, 156.1, 414.4)" opacity="0.90"></image></g></g><g><clipPath id="clip0x6000014b7f40"><path d="M 159.3 220.0 L 441.3 220.0 L 441.3 418.0 L 159.3 418.0 Z M 159.3 220.0 "></path></clipPath><g clip-path="url(#clip0x6000014b7f40)"><text xml:space="preserve" font-family="Ubuntu-Bold,Ubuntu" font-weight="bold" font-size="53.0" fill="#000000" transform="matrix(1.00, 0.00, -0.00, -1.00, 231.5, 354.7)">T</text><text xml:space="preserve" font-family="Ubuntu-Bold,Ubuntu" font-weight="bold" font-size="53.0" fill="#000000" transform="matrix(1.00, 0.00, -0.00, -1.00, 264.1, 354.7)">h</text><text xml:space="preserve" font-family="Ubuntu-Bold,Ubuntu" font-weight="bold" font-size="53.0" fill="#000000" transform="matrix(1.00, 0.00, -0.00, -1.00, 295.3, 354.7)">e</text><text xml:space="preserve" font-family="Ubuntu-Bold,Ubuntu" font-weight="bold" font-size="53.0" fill="#000000" transform="matrix(1.00, 0.00, -0.00, -1.00, 326.2, 354.7)"> </text><text xml:space="preserve" font-family="Ubuntu-Bold,Ubuntu" font-weight="bold" font-size="53.0" fill="#000000" transform="matrix(1.00, 0.00, -0.00, -1.00, 339.0, 354.7)">3</text><text xml:space="preserve" font-family="Ubuntu-Bold,Ubuntu" font-weight="bold" font-size="53.0" fill="#000000" transform="matrix(1.00, 0.00, -0.00, -1.00, 369.1, 354.7)"> </text><text xml:space="preserve" font-family="Ubuntu-Bold,Ubuntu" font-weight="bold" font-size="53.0" fill="#000000" transform="matrix(1.00, 0.00, -0.00, -1.00, 189.5, 300.5)">L</text><text xml:space="preserve" font-family="Ubuntu-Bold,Ubuntu" font-weight="bold" font-size="53.0" fill="#000000" transform="matrix(1.00, 0.00, -0.00, -1.00, 219.3, 300.5)">e</text><text xml:space="preserve" font-family="Ubuntu-Bold,Ubuntu" font-weight="bold" font-size="53.0" fill="#000000" transform="matrix(1.00, 0.00, -0.00, -1.00, 250.2, 300.5)">a</text><text xml:space="preserve" font-family="Ubuntu-Bold,Ubuntu" font-weight="bold" font-size="53.0" fill="#000000" transform="matrix(1.00, 0.00, -0.00, -1.00, 279.6, 300.5)">r</text><text xml:space="preserve" font-family="Ubuntu-Bold,Ubuntu" font-weight="bold" font-size="53.0" fill="#000000" transform="matrix(1.00, 0.00, -0.00, -1.00, 301.9, 300.5)">n</text><text xml:space="preserve" font-family="Ubuntu-Bold,Ubuntu" font-weight="bold" font-size="53.0" fill="#000000" transform="matrix(1.00, 0.00, -0.00, -1.00, 333.1, 300.5)">i</text><text xml:space="preserve" font-family="Ubuntu-Bold,Ubuntu" font-weight="bold" font-size="53.0" fill="#000000" transform="matrix(1.00, 0.00, -0.00, -1.00, 348.5, 300.5)">n</text><text xml:space="preserve" font-family="Ubuntu-Bold,Ubuntu" font-weight="bold" font-size="53.0" fill="#000000" transform="matrix(1.00, 0.00, -0.00, -1.00, 379.7, 300.5)">g</text><text xml:space="preserve" font-family="Ubuntu-Bold,Ubuntu" font-weight="bold" font-size="53.0" fill="#000000" transform="matrix(1.00, 0.00, -0.00, -1.00, 411.2, 300.5)"> </text><text xml:space="preserve" font-family="Ubuntu-Bold,Ubuntu" font-weight="bold" font-size="53.0" fill="#000000" transform="matrix(1.00, 0.00, -0.00, -1.00, 221.7, 246.4)">S</text><text xml:space="preserve" font-family="Ubuntu-Bold,Ubuntu" font-weight="bold" font-size="53.0" fill="#000000" transform="matrix(1.00, 0.00, -0.00, -1.00, 252.5, 246.4)">t</text><text xml:space="preserve" font-family="Ubuntu-Bold,Ubuntu" font-weight="bold" font-size="53.0" fill="#000000" transform="matrix(1.00, 0.00, -0.00, -1.00, 276.6, 246.4)">y</text><text xml:space="preserve" font-family="Ubuntu-Bold,Ubuntu" font-weight="bold" font-size="53.0" fill="#000000" transform="matrix(1.00, 0.00, -0.00, -1.00, 305.6, 246.4)">l</text><text xml:space="preserve" font-family="Ubuntu-Bold,Ubuntu" font-weight="bold" font-size="53.0" fill="#000000" transform="matrix(1.00, 0.00, -0.00, -1.00, 322.3, 246.4)">e</text><text xml:space="preserve" font-family="Ubuntu-Bold,Ubuntu" font-weight="bold" font-size="53.0" fill="#000000" transform="matrix(1.00, 0.00, -0.00, -1.00, 353.3, 246.4)">s</text></g></g><g><clipPath id="clip0x6000018a6a20"><path d="M 119.2 449.9 L 258.1 449.9 L 258.1 488.8 L 119.2 488.8 Z M 119.2 449.9 "></path></clipPath><g clip-path="url(#clip0x6000018a6a20)"><text xml:space="preserve" font-family="Ubuntu-Regular,Ubuntu" font-size="23.0" fill="#FEFFFE" transform="matrix(1.00, 0.00, -0.00, -1.00, 126.2, 461.3)">M</text><text xml:space="preserve" font-family="Ubuntu-Regular,Ubuntu" font-size="23.0" fill="#FEFFFE" transform="matrix(1.00, 0.00, -0.00, -1.00, 146.3, 461.3)">a</text><text xml:space="preserve" font-family="Ubuntu-Regular,Ubuntu" font-size="23.0" fill="#FEFFFE" transform="matrix(1.00, 0.00, -0.00, -1.00, 158.4, 461.3)">k</text><text xml:space="preserve" font-family="Ubuntu-Regular,Ubuntu" font-size="23.0" fill="#FEFFFE" transform="matrix(1.00, 0.00, -0.00, -1.00, 169.9, 461.3)">e</text><text xml:space="preserve" font-family="Ubuntu-Regular,Ubuntu" font-size="23.0" fill="#FEFFFE" transform="matrix(1.00, 0.00, -0.00, -1.00, 182.8, 461.3)"> </text><text xml:space="preserve" font-family="Ubuntu-Regular,Ubuntu" font-size="23.0" fill="#FEFFFE" transform="matrix(1.00, 0.00, -0.00, -1.00, 188.3, 461.3)">N</text><text xml:space="preserve" font-family="Ubuntu-Regular,Ubuntu" font-size="23.0" fill="#FEFFFE" transform="matrix(1.00, 0.00, -0.00, -1.00, 205.1, 461.3)">o</text><text xml:space="preserve" font-family="Ubuntu-Regular,Ubuntu" font-size="23.0" fill="#FEFFFE" transform="matrix(1.00, 0.00, -0.00, -1.00, 218.8, 461.3)">t</text><text xml:space="preserve" font-family="Ubuntu-Regular,Ubuntu" font-size="23.0" fill="#FEFFFE" transform="matrix(1.00, 0.00, -0.00, -1.00, 227.9, 461.3)">e</text><text xml:space="preserve" font-family="Ubuntu-Regular,Ubuntu" font-size="23.0" fill="#FEFFFE" transform="matrix(1.00, 0.00, -0.00, -1.00, 240.8, 461.3)">s</text></g></g><g><clipPath id="clip0x6000016b9980"><path d="M 88.7 412.8 L 245.6 412.8 L 245.6 451.7 L 88.7 451.7 Z M 88.7 412.8 "></path></clipPath><g clip-path="url(#clip0x6000016b9980)"><text xml:space="preserve" font-family="Ubuntu-Regular,Ubuntu" font-size="23.0" fill="#FEFFFE" transform="matrix(1.00, 0.00, -0.00, -1.00, 95.6, 424.2)">W</text><text xml:space="preserve" font-family="Ubuntu-Regular,Ubuntu" font-size="23.0" fill="#FEFFFE" transform="matrix(1.00, 0.00, -0.00, -1.00, 116.4, 424.2)">a</text><text xml:space="preserve" font-family="Ubuntu-Regular,Ubuntu" font-size="23.0" fill="#FEFFFE" transform="matrix(1.00, 0.00, -0.00, -1.00, 128.5, 424.2)">t</text><text xml:space="preserve" font-family="Ubuntu-Regular,Ubuntu" font-size="23.0" fill="#FEFFFE" transform="matrix(1.00, 0.00, -0.00, -1.00, 137.5, 424.2)">c</text><text xml:space="preserve" font-family="Ubuntu-Regular,Ubuntu" font-size="23.0" fill="#FEFFFE" transform="matrix(1.00, 0.00, -0.00, -1.00, 148.3, 424.2)">h</text><text xml:space="preserve" font-family="Ubuntu-Regular,Ubuntu" font-size="23.0" fill="#FEFFFE" transform="matrix(1.00, 0.00, -0.00, -1.00, 161.5, 424.2)"> </text><text xml:space="preserve" font-family="Ubuntu-Regular,Ubuntu" font-size="23.0" fill="#FEFFFE" transform="matrix(1.00, 0.00, -0.00, -1.00, 166.9, 424.2)">V</text><text xml:space="preserve" font-family="Ubuntu-Regular,Ubuntu" font-size="23.0" fill="#FEFFFE" transform="matrix(1.00, 0.00, -0.00, -1.00, 182.1, 424.2)">i</text><text xml:space="preserve" font-family="Ubuntu-Regular,Ubuntu" font-size="23.0" fill="#FEFFFE" transform="matrix(1.00, 0.00, -0.00, -1.00, 188.0, 424.2)">d</text><text xml:space="preserve" font-family="Ubuntu-Regular,Ubuntu" font-size="23.0" fill="#FEFFFE" transform="matrix(1.00, 0.00, -0.00, -1.00, 201.7, 424.2)">e</text><text xml:space="preserve" font-family="Ubuntu-Regular,Ubuntu" font-size="23.0" fill="#FEFFFE" transform="matrix(1.00, 0.00, -0.00, -1.00, 214.6, 424.2)">o</text><text xml:space="preserve" font-family="Ubuntu-Regular,Ubuntu" font-size="23.0" fill="#FEFFFE" transform="matrix(1.00, 0.00, -0.00, -1.00, 228.3, 424.2)">s</text></g></g><g><clipPath id="clip0x6000016aa860"><path d="M 58.7 338.6 L 209.4 338.6 L 209.4 377.5 L 58.7 377.5 Z M 58.7 338.6 "></path></clipPath><g clip-path="url(#clip0x6000016aa860)"><text xml:space="preserve" font-family="Ubuntu-Regular,Ubuntu" font-size="23.0" fill="#FEFFFE" transform="matrix(1.00, 0.00, -0.00, -1.00, 65.6, 350.0)">O</text><text xml:space="preserve" font-family="Ubuntu-Regular,Ubuntu" font-size="23.0" fill="#FEFFFE" transform="matrix(1.00, 0.00, -0.00, -1.00, 83.6, 350.0)">r</text><text xml:space="preserve" font-family="Ubuntu-Regular,Ubuntu" font-size="23.0" fill="#FEFFFE" transform="matrix(1.00, 0.00, -0.00, -1.00, 92.6, 350.0)">g</text><text xml:space="preserve" font-family="Ubuntu-Regular,Ubuntu" font-size="23.0" fill="#FEFFFE" transform="matrix(1.00, 0.00, -0.00, -1.00, 105.9, 350.0)">a</text><text xml:space="preserve" font-family="Ubuntu-Regular,Ubuntu" font-size="23.0" fill="#FEFFFE" transform="matrix(1.00, 0.00, -0.00, -1.00, 118.0, 350.0)">n</text><text xml:space="preserve" font-family="Ubuntu-Regular,Ubuntu" font-size="23.0" fill="#FEFFFE" transform="matrix(1.00, 0.00, -0.00, -1.00, 131.3, 350.0)">i</text><text xml:space="preserve" font-family="Ubuntu-Regular,Ubuntu" font-size="23.0" fill="#FEFFFE" transform="matrix(1.00, 0.00, -0.00, -1.00, 137.3, 350.0)">z</text><text xml:space="preserve" font-family="Ubuntu-Regular,Ubuntu" font-size="23.0" fill="#FEFFFE" transform="matrix(1.00, 0.00, -0.00, -1.00, 148.2, 350.0)">a</text><text xml:space="preserve" font-family="Ubuntu-Regular,Ubuntu" font-size="23.0" fill="#FEFFFE" transform="matrix(1.00, 0.00, -0.00, -1.00, 160.3, 350.0)">t</text><text xml:space="preserve" font-family="Ubuntu-Regular,Ubuntu" font-size="23.0" fill="#FEFFFE" transform="matrix(1.00, 0.00, -0.00, -1.00, 169.6, 350.0)">i</text><text xml:space="preserve" font-family="Ubuntu-Regular,Ubuntu" font-size="23.0" fill="#FEFFFE" transform="matrix(1.00, 0.00, -0.00, -1.00, 175.5, 350.0)">o</text><text xml:space="preserve" font-family="Ubuntu-Regular,Ubuntu" font-size="23.0" fill="#FEFFFE" transform="matrix(1.00, 0.00, -0.00, -1.00, 189.2, 350.0)">n</text></g></g><g><clipPath id="clip0x6000018a2820"><path d="M 74.4 375.7 L 235.0 375.7 L 235.0 414.6 L 74.4 414.6 Z M 74.4 375.7 "></path></clipPath><g clip-path="url(#clip0x6000018a2820)"><text xml:space="preserve" font-family="Ubuntu-Regular,Ubuntu" font-size="23.0" fill="#FEFFFE" transform="matrix(1.00, 0.00, -0.00, -1.00, 81.3, 387.1)">M</text><text xml:space="preserve" font-family="Ubuntu-Regular,Ubuntu" font-size="23.0" fill="#FEFFFE" transform="matrix(1.00, 0.00, -0.00, -1.00, 101.4, 387.1)">e</text><text xml:space="preserve" font-family="Ubuntu-Regular,Ubuntu" font-size="23.0" fill="#FEFFFE" transform="matrix(1.00, 0.00, -0.00, -1.00, 114.4, 387.1)">m</text><text xml:space="preserve" font-family="Ubuntu-Regular,Ubuntu" font-size="23.0" fill="#FEFFFE" transform="matrix(1.00, 0.00, -0.00, -1.00, 134.3, 387.1)">o</text><text xml:space="preserve" font-family="Ubuntu-Regular,Ubuntu" font-size="23.0" fill="#FEFFFE" transform="matrix(1.00, 0.00, -0.00, -1.00, 147.9, 387.1)">r</text><text xml:space="preserve" font-family="Ubuntu-Regular,Ubuntu" font-size="23.0" fill="#FEFFFE" transform="matrix(1.00, 0.00, -0.00, -1.00, 156.9, 387.1)">i</text><text xml:space="preserve" font-family="Ubuntu-Regular,Ubuntu" font-size="23.0" fill="#FEFFFE" transform="matrix(1.00, 0.00, -0.00, -1.00, 162.8, 387.1)">z</text><text xml:space="preserve" font-family="Ubuntu-Regular,Ubuntu" font-size="23.0" fill="#FEFFFE" transform="matrix(1.00, 0.00, -0.00, -1.00, 173.7, 387.1)">a</text><text xml:space="preserve" font-family="Ubuntu-Regular,Ubuntu" font-size="23.0" fill="#FEFFFE" transform="matrix(1.00, 0.00, -0.00, -1.00, 185.8, 387.1)">t</text><text xml:space="preserve" font-family="Ubuntu-Regular,Ubuntu" font-size="23.0" fill="#FEFFFE" transform="matrix(1.00, 0.00, -0.00, -1.00, 195.2, 387.1)">i</text><text xml:space="preserve" font-family="Ubuntu-Regular,Ubuntu" font-size="23.0" fill="#FEFFFE" transform="matrix(1.00, 0.00, -0.00, -1.00, 201.1, 387.1)">o</text><text xml:space="preserve" font-family="Ubuntu-Regular,Ubuntu" font-size="23.0" fill="#FEFFFE" transform="matrix(1.00, 0.00, -0.00, -1.00, 214.8, 387.1)">n</text></g></g><g><clipPath id="clip0x608001aa28e0"><path d="M 480.9 338.6 L 558.4 338.6 L 558.4 377.5 L 480.9 377.5 Z M 480.9 338.6 "></path></clipPath><g clip-path="url(#clip0x608001aa28e0)"><text xml:space="preserve" font-family="Ubuntu-Regular,Ubuntu" font-size="23.0" fill="#FEFFFE" transform="matrix(1.00, 0.00, -0.00, -1.00, 487.8, 350.0)">L</text><text xml:space="preserve" font-family="Ubuntu-Regular,Ubuntu" font-size="23.0" fill="#FEFFFE" transform="matrix(1.00, 0.00, -0.00, -1.00, 499.9, 350.0)">i</text><text xml:space="preserve" font-family="Ubuntu-Regular,Ubuntu" font-size="23.0" fill="#FEFFFE" transform="matrix(1.00, 0.00, -0.00, -1.00, 505.8, 350.0)">s</text><text xml:space="preserve" font-family="Ubuntu-Regular,Ubuntu" font-size="23.0" fill="#FEFFFE" transform="matrix(1.00, 0.00, -0.00, -1.00, 516.1, 350.0)">t</text><text xml:space="preserve" font-family="Ubuntu-Regular,Ubuntu" font-size="23.0" fill="#FEFFFE" transform="matrix(1.00, 0.00, -0.00, -1.00, 525.2, 350.0)">e</text><text xml:space="preserve" font-family="Ubuntu-Regular,Ubuntu" font-size="23.0" fill="#FEFFFE" transform="matrix(1.00, 0.00, -0.00, -1.00, 538.2, 350.0)">n</text></g></g><g><clipPath id="clip0x6080018bbfc0"><path d="M 340.4 412.8 L 535.3 412.8 L 535.3 451.7 L 340.4 451.7 Z M 340.4 412.8 "></path></clipPath><g clip-path="url(#clip0x6080018bbfc0)"><text xml:space="preserve" font-family="Ubuntu-Regular,Ubuntu" font-size="23.0" fill="#FEFFFE" transform="matrix(1.00, 0.00, -0.00, -1.00, 347.3, 424.2)">D</text><text xml:space="preserve" font-family="Ubuntu-Regular,Ubuntu" font-size="23.0" fill="#FEFFFE" transform="matrix(1.00, 0.00, -0.00, -1.00, 363.8, 424.2)">i</text><text xml:space="preserve" font-family="Ubuntu-Regular,Ubuntu" font-size="23.0" fill="#FEFFFE" transform="matrix(1.00, 0.00, -0.00, -1.00, 369.7, 424.2)">s</text><text xml:space="preserve" font-family="Ubuntu-Regular,Ubuntu" font-size="23.0" fill="#FEFFFE" transform="matrix(1.00, 0.00, -0.00, -1.00, 380.1, 424.2)">c</text><text xml:space="preserve" font-family="Ubuntu-Regular,Ubuntu" font-size="23.0" fill="#FEFFFE" transform="matrix(1.00, 0.00, -0.00, -1.00, 390.9, 424.2)">u</text><text xml:space="preserve" font-family="Ubuntu-Regular,Ubuntu" font-size="23.0" fill="#FEFFFE" transform="matrix(1.00, 0.00, -0.00, -1.00, 404.2, 424.2)">s</text><text xml:space="preserve" font-family="Ubuntu-Regular,Ubuntu" font-size="23.0" fill="#FEFFFE" transform="matrix(1.00, 0.00, -0.00, -1.00, 414.5, 424.2)">s</text><text xml:space="preserve" font-family="Ubuntu-Regular,Ubuntu" font-size="23.0" fill="#FEFFFE" transform="matrix(1.00, 0.00, -0.00, -1.00, 424.9, 424.2)"> </text><text xml:space="preserve" font-family="Ubuntu-Regular,Ubuntu" font-size="23.0" fill="#FEFFFE" transform="matrix(1.00, 0.00, -0.00, -1.00, 430.3, 424.2)">C</text><text xml:space="preserve" font-family="Ubuntu-Regular,Ubuntu" font-size="23.0" fill="#FEFFFE" transform="matrix(1.00, 0.00, -0.00, -1.00, 444.3, 424.2)">o</text><text xml:space="preserve" font-family="Ubuntu-Regular,Ubuntu" font-size="23.0" fill="#FEFFFE" transform="matrix(1.00, 0.00, -0.00, -1.00, 457.9, 424.2)">n</text><text xml:space="preserve" font-family="Ubuntu-Regular,Ubuntu" font-size="23.0" fill="#FEFFFE" transform="matrix(1.00, 0.00, -0.00, -1.00, 471.2, 424.2)">c</text><text xml:space="preserve" font-family="Ubuntu-Regular,Ubuntu" font-size="23.0" fill="#FEFFFE" transform="matrix(1.00, 0.00, -0.00, -1.00, 482.0, 424.2)">e</text><text xml:space="preserve" font-family="Ubuntu-Regular,Ubuntu" font-size="23.0" fill="#FEFFFE" transform="matrix(1.00, 0.00, -0.00, -1.00, 495.0, 424.2)">p</text><text xml:space="preserve" font-family="Ubuntu-Regular,Ubuntu" font-size="23.0" fill="#FEFFFE" transform="matrix(1.00, 0.00, -0.00, -1.00, 508.6, 424.2)">t</text><text xml:space="preserve" font-family="Ubuntu-Regular,Ubuntu" font-size="23.0" fill="#FEFFFE" transform="matrix(1.00, 0.00, -0.00, -1.00, 518.0, 424.2)">s</text></g></g><g><clipPath id="clip0x6080016b44c0"><path d="M 324.8 449.9 L 520.1 449.9 L 520.1 488.8 L 324.8 488.8 Z M 324.8 449.9 "></path></clipPath><g clip-path="url(#clip0x6080016b44c0)"><text xml:space="preserve" font-family="Ubuntu-Regular,Ubuntu" font-size="23.0" fill="#FEFFFE" transform="matrix(1.00, 0.00, -0.00, -1.00, 331.8, 461.3)">A</text><text xml:space="preserve" font-family="Ubuntu-Regular,Ubuntu" font-size="23.0" fill="#FEFFFE" transform="matrix(1.00, 0.00, -0.00, -1.00, 346.8, 461.3)">u</text><text xml:space="preserve" font-family="Ubuntu-Regular,Ubuntu" font-size="23.0" fill="#FEFFFE" transform="matrix(1.00, 0.00, -0.00, -1.00, 360.0, 461.3)">r</text><text xml:space="preserve" font-family="Ubuntu-Regular,Ubuntu" font-size="23.0" fill="#FEFFFE" transform="matrix(1.00, 0.00, -0.00, -1.00, 369.0, 461.3)">a</text><text xml:space="preserve" font-family="Ubuntu-Regular,Ubuntu" font-size="23.0" fill="#FEFFFE" transform="matrix(1.00, 0.00, -0.00, -1.00, 381.1, 461.3)">l</text><text xml:space="preserve" font-family="Ubuntu-Regular,Ubuntu" font-size="23.0" fill="#FEFFFE" transform="matrix(1.00, 0.00, -0.00, -1.00, 387.5, 461.3)"> </text><text xml:space="preserve" font-family="Ubuntu-Regular,Ubuntu" font-size="23.0" fill="#FEFFFE" transform="matrix(1.00, 0.00, -0.00, -1.00, 392.9, 461.3)">M</text><text xml:space="preserve" font-family="Ubuntu-Regular,Ubuntu" font-size="23.0" fill="#FEFFFE" transform="matrix(1.00, 0.00, -0.00, -1.00, 413.0, 461.3)">n</text><text xml:space="preserve" font-family="Ubuntu-Regular,Ubuntu" font-size="23.0" fill="#FEFFFE" transform="matrix(1.00, 0.00, -0.00, -1.00, 426.3, 461.3)">e</text><text xml:space="preserve" font-family="Ubuntu-Regular,Ubuntu" font-size="23.0" fill="#FEFFFE" transform="matrix(1.00, 0.00, -0.00, -1.00, 439.3, 461.3)">m</text><text xml:space="preserve" font-family="Ubuntu-Regular,Ubuntu" font-size="23.0" fill="#FEFFFE" transform="matrix(1.00, 0.00, -0.00, -1.00, 459.2, 461.3)">o</text><text xml:space="preserve" font-family="Ubuntu-Regular,Ubuntu" font-size="23.0" fill="#FEFFFE" transform="matrix(1.00, 0.00, -0.00, -1.00, 472.8, 461.3)">n</text><text xml:space="preserve" font-family="Ubuntu-Regular,Ubuntu" font-size="23.0" fill="#FEFFFE" transform="matrix(1.00, 0.00, -0.00, -1.00, 486.1, 461.3)">i</text><text xml:space="preserve" font-family="Ubuntu-Regular,Ubuntu" font-size="23.0" fill="#FEFFFE" transform="matrix(1.00, 0.00, -0.00, -1.00, 492.0, 461.3)">c</text><text xml:space="preserve" font-family="Ubuntu-Regular,Ubuntu" font-size="23.0" fill="#FEFFFE" transform="matrix(1.00, 0.00, -0.00, -1.00, 502.8, 461.3)">s</text></g></g><g><clipPath id="clip0x6080014bcaa0"><path d="M 358.6 375.7 L 550.3 375.7 L 550.3 414.6 L 358.6 414.6 Z M 358.6 375.7 "></path></clipPath><g clip-path="url(#clip0x6080014bcaa0)"><text xml:space="preserve" font-family="Ubuntu-Regular,Ubuntu" font-size="23.0" fill="#FEFFFE" transform="matrix(1.00, 0.00, -0.00, -1.00, 365.5, 387.1)">S</text><text xml:space="preserve" font-family="Ubuntu-Regular,Ubuntu" font-size="23.0" fill="#FEFFFE" transform="matrix(1.00, 0.00, -0.00, -1.00, 377.9, 387.1)">t</text><text xml:space="preserve" font-family="Ubuntu-Regular,Ubuntu" font-size="23.0" fill="#FEFFFE" transform="matrix(1.00, 0.00, -0.00, -1.00, 387.2, 387.1)">u</text><text xml:space="preserve" font-family="Ubuntu-Regular,Ubuntu" font-size="23.0" fill="#FEFFFE" transform="matrix(1.00, 0.00, -0.00, -1.00, 400.5, 387.1)">d</text><text xml:space="preserve" font-family="Ubuntu-Regular,Ubuntu" font-size="23.0" fill="#FEFFFE" transform="matrix(1.00, 0.00, -0.00, -1.00, 414.1, 387.1)">y</text><text xml:space="preserve" font-family="Ubuntu-Regular,Ubuntu" font-size="23.0" fill="#FEFFFE" transform="matrix(1.00, 0.00, -0.00, -1.00, 425.7, 387.1)"> </text><text xml:space="preserve" font-family="Ubuntu-Regular,Ubuntu" font-size="23.0" fill="#FEFFFE" transform="matrix(1.00, 0.00, -0.00, -1.00, 431.1, 387.1)">w</text><text xml:space="preserve" font-family="Ubuntu-Regular,Ubuntu" font-size="23.0" fill="#FEFFFE" transform="matrix(1.00, 0.00, -0.00, -1.00, 449.0, 387.1)">i</text><text xml:space="preserve" font-family="Ubuntu-Regular,Ubuntu" font-size="23.0" fill="#FEFFFE" transform="matrix(1.00, 0.00, -0.00, -1.00, 454.9, 387.1)">t</text><text xml:space="preserve" font-family="Ubuntu-Regular,Ubuntu" font-size="23.0" fill="#FEFFFE" transform="matrix(1.00, 0.00, -0.00, -1.00, 464.3, 387.1)">h</text><text xml:space="preserve" font-family="Ubuntu-Regular,Ubuntu" font-size="23.0" fill="#FEFFFE" transform="matrix(1.00, 0.00, -0.00, -1.00, 477.5, 387.1)"> </text><text xml:space="preserve" font-family="Ubuntu-Regular,Ubuntu" font-size="23.0" fill="#FEFFFE" transform="matrix(1.00, 0.00, -0.00, -1.00, 482.9, 387.1)">M</text><text xml:space="preserve" font-family="Ubuntu-Regular,Ubuntu" font-size="23.0" fill="#FEFFFE" transform="matrix(1.00, 0.00, -0.00, -1.00, 503.0, 387.1)">u</text><text xml:space="preserve" font-family="Ubuntu-Regular,Ubuntu" font-size="23.0" fill="#FEFFFE" transform="matrix(1.00, 0.00, -0.00, -1.00, 516.3, 387.1)">s</text><text xml:space="preserve" font-family="Ubuntu-Regular,Ubuntu" font-size="23.0" fill="#FEFFFE" transform="matrix(1.00, 0.00, -0.00, -1.00, 526.7, 387.1)">i</text><text xml:space="preserve" font-family="Ubuntu-Regular,Ubuntu" font-size="23.0" fill="#FEFFFE" transform="matrix(1.00, 0.00, -0.00, -1.00, 532.6, 387.1)">c</text></g></g><g><clipPath id="clip0x6080016a34e0"><path d="M 218.7 187.2 L 390.0 187.2 L 390.0 226.1 L 218.7 226.1 Z M 218.7 187.2 "></path></clipPath><g clip-path="url(#clip0x6080016a34e0)"><text xml:space="preserve" font-family="Ubuntu-Regular,Ubuntu" font-size="23.0" fill="#FEFFFE" transform="matrix(1.00, 0.00, -0.00, -1.00, 225.6, 198.6)">L</text><text xml:space="preserve" font-family="Ubuntu-Regular,Ubuntu" font-size="23.0" fill="#FEFFFE" transform="matrix(1.00, 0.00, -0.00, -1.00, 237.4, 198.6)">e</text><text xml:space="preserve" font-family="Ubuntu-Regular,Ubuntu" font-size="23.0" fill="#FEFFFE" transform="matrix(1.00, 0.00, -0.00, -1.00, 250.3, 198.6)">a</text><text xml:space="preserve" font-family="Ubuntu-Regular,Ubuntu" font-size="23.0" fill="#FEFFFE" transform="matrix(1.00, 0.00, -0.00, -1.00, 262.4, 198.6)">r</text><text xml:space="preserve" font-family="Ubuntu-Regular,Ubuntu" font-size="23.0" fill="#FEFFFE" transform="matrix(1.00, 0.00, -0.00, -1.00, 271.4, 198.6)">n</text><text xml:space="preserve" font-family="Ubuntu-Regular,Ubuntu" font-size="23.0" fill="#FEFFFE" transform="matrix(1.00, 0.00, -0.00, -1.00, 284.7, 198.6)"> </text><text xml:space="preserve" font-family="Ubuntu-Regular,Ubuntu" font-size="23.0" fill="#FEFFFE" transform="matrix(1.00, 0.00, -0.00, -1.00, 290.1, 198.6)">b</text><text xml:space="preserve" font-family="Ubuntu-Regular,Ubuntu" font-size="23.0" fill="#FEFFFE" transform="matrix(1.00, 0.00, -0.00, -1.00, 303.4, 198.6)">y</text><text xml:space="preserve" font-family="Ubuntu-Regular,Ubuntu" font-size="23.0" fill="#FEFFFE" transform="matrix(1.00, 0.00, -0.00, -1.00, 314.9, 198.6)"> </text><text xml:space="preserve" font-family="Ubuntu-Regular,Ubuntu" font-size="23.0" fill="#FEFFFE" transform="matrix(1.00, 0.00, -0.00, -1.00, 320.3, 198.6)">D</text><text xml:space="preserve" font-family="Ubuntu-Regular,Ubuntu" font-size="23.0" fill="#FEFFFE" transform="matrix(1.00, 0.00, -0.00, -1.00, 336.8, 198.6)">o</text><text xml:space="preserve" font-family="Ubuntu-Regular,Ubuntu" font-size="23.0" fill="#FEFFFE" transform="matrix(1.00, 0.00, -0.00, -1.00, 350.5, 198.6)">i</text><text xml:space="preserve" font-family="Ubuntu-Regular,Ubuntu" font-size="23.0" fill="#FEFFFE" transform="matrix(1.00, 0.00, -0.00, -1.00, 356.4, 198.6)">n</text><text xml:space="preserve" font-family="Ubuntu-Regular,Ubuntu" font-size="23.0" fill="#FEFFFE" transform="matrix(1.00, 0.00, -0.00, -1.00, 369.7, 198.6)">g</text></g></g><g><clipPath id="clip0x6080018b9c80"><path d="M 218.7 148.6 L 400.9 148.6 L 400.9 187.4 L 218.7 187.4 Z M 218.7 148.6 "></path></clipPath><g clip-path="url(#clip0x6080018b9c80)"><text xml:space="preserve" font-family="Ubuntu-Regular,Ubuntu" font-size="23.0" fill="#FEFFFE" transform="matrix(1.00, 0.00, -0.00, -1.00, 225.6, 160.0)">T</text><text xml:space="preserve" font-family="Ubuntu-Regular,Ubuntu" font-size="23.0" fill="#FEFFFE" transform="matrix(1.00, 0.00, -0.00, -1.00, 237.4, 160.0)">e</text><text xml:space="preserve" font-family="Ubuntu-Regular,Ubuntu" font-size="23.0" fill="#FEFFFE" transform="matrix(1.00, 0.00, -0.00, -1.00, 250.4, 160.0)">s</text><text xml:space="preserve" font-family="Ubuntu-Regular,Ubuntu" font-size="23.0" fill="#FEFFFE" transform="matrix(1.00, 0.00, -0.00, -1.00, 260.7, 160.0)">t</text><text xml:space="preserve" font-family="Ubuntu-Regular,Ubuntu" font-size="23.0" fill="#FEFFFE" transform="matrix(1.00, 0.00, -0.00, -1.00, 270.1, 160.0)"> </text><text xml:space="preserve" font-family="Ubuntu-Regular,Ubuntu" font-size="23.0" fill="#FEFFFE" transform="matrix(1.00, 0.00, -0.00, -1.00, 275.5, 160.0)">K</text><text xml:space="preserve" font-family="Ubuntu-Regular,Ubuntu" font-size="23.0" fill="#FEFFFE" transform="matrix(1.00, 0.00, -0.00, -1.00, 290.0, 160.0)">n</text><text xml:space="preserve" font-family="Ubuntu-Regular,Ubuntu" font-size="23.0" fill="#FEFFFE" transform="matrix(1.00, 0.00, -0.00, -1.00, 303.3, 160.0)">o</text><text xml:space="preserve" font-family="Ubuntu-Regular,Ubuntu" font-size="23.0" fill="#FEFFFE" transform="matrix(1.00, 0.00, -0.00, -1.00, 316.7, 160.0)">w</text><text xml:space="preserve" font-family="Ubuntu-Regular,Ubuntu" font-size="23.0" fill="#FEFFFE" transform="matrix(1.00, 0.00, -0.00, -1.00, 334.6, 160.0)">l</text><text xml:space="preserve" font-family="Ubuntu-Regular,Ubuntu" font-size="23.0" fill="#FEFFFE" transform="matrix(1.00, 0.00, -0.00, -1.00, 341.0, 160.0)">e</text><text xml:space="preserve" font-family="Ubuntu-Regular,Ubuntu" font-size="23.0" fill="#FEFFFE" transform="matrix(1.00, 0.00, -0.00, -1.00, 354.0, 160.0)">d</text><text xml:space="preserve" font-family="Ubuntu-Regular,Ubuntu" font-size="23.0" fill="#FEFFFE" transform="matrix(1.00, 0.00, -0.00, -1.00, 367.6, 160.0)">g</text><text xml:space="preserve" font-family="Ubuntu-Regular,Ubuntu" font-size="23.0" fill="#FEFFFE" transform="matrix(1.00, 0.00, -0.00, -1.00, 381.0, 160.0)">e</text></g></g><g><clipPath id="clip0x6080018b49a0"><path d="M 250.7 73.7 L 363.5 73.7 L 363.5 112.6 L 250.7 112.6 Z M 250.7 73.7 "></path></clipPath><g clip-path="url(#clip0x6080018b49a0)"><text xml:space="preserve" font-family="Ubuntu-Regular,Ubuntu" font-size="23.0" fill="#FEFFFE" transform="matrix(1.00, 0.00, -0.00, -1.00, 257.6, 85.1)">M</text><text xml:space="preserve" font-family="Ubuntu-Regular,Ubuntu" font-size="23.0" fill="#FEFFFE" transform="matrix(1.00, 0.00, -0.00, -1.00, 277.7, 85.1)">u</text><text xml:space="preserve" font-family="Ubuntu-Regular,Ubuntu" font-size="23.0" fill="#FEFFFE" transform="matrix(1.00, 0.00, -0.00, -1.00, 291.0, 85.1)">l</text><text xml:space="preserve" font-family="Ubuntu-Regular,Ubuntu" font-size="23.0" fill="#FEFFFE" transform="matrix(1.00, 0.00, -0.00, -1.00, 297.4, 85.1)">t</text><text xml:space="preserve" font-family="Ubuntu-Regular,Ubuntu" font-size="23.0" fill="#FEFFFE" transform="matrix(1.00, 0.00, -0.00, -1.00, 306.7, 85.1)">i</text><text xml:space="preserve" font-family="Ubuntu-Regular,Ubuntu" font-size="23.0" fill="#FEFFFE" transform="matrix(1.00, 0.00, -0.00, -1.00, 312.7, 85.1)">t</text><text xml:space="preserve" font-family="Ubuntu-Regular,Ubuntu" font-size="23.0" fill="#FEFFFE" transform="matrix(1.00, 0.00, -0.00, -1.00, 322.0, 85.1)">a</text><text xml:space="preserve" font-family="Ubuntu-Regular,Ubuntu" font-size="23.0" fill="#FEFFFE" transform="matrix(1.00, 0.00, -0.00, -1.00, 334.1, 85.1)">s</text><text xml:space="preserve" font-family="Ubuntu-Regular,Ubuntu" font-size="23.0" fill="#FEFFFE" transform="matrix(1.00, 0.00, -0.00, -1.00, 344.4, 85.1)">k</text></g></g><g><clipPath id="clip0x6080018a1320"><path d="M 175.8 109.9 L 432.9 109.9 L 432.9 148.8 L 175.8 148.8 Z M 175.8 109.9 "></path></clipPath><g clip-path="url(#clip0x6080018a1320)"><text xml:space="preserve" font-family="Ubuntu-Regular,Ubuntu" font-size="23.0" fill="#FEFFFE" transform="matrix(1.00, 0.00, -0.00, -1.00, 182.7, 121.4)">M</text><text xml:space="preserve" font-family="Ubuntu-Regular,Ubuntu" font-size="23.0" fill="#FEFFFE" transform="matrix(1.00, 0.00, -0.00, -1.00, 202.8, 121.4)">a</text><text xml:space="preserve" font-family="Ubuntu-Regular,Ubuntu" font-size="23.0" fill="#FEFFFE" transform="matrix(1.00, 0.00, -0.00, -1.00, 214.9, 121.4)">k</text><text xml:space="preserve" font-family="Ubuntu-Regular,Ubuntu" font-size="23.0" fill="#FEFFFE" transform="matrix(1.00, 0.00, -0.00, -1.00, 226.4, 121.4)">e</text><text xml:space="preserve" font-family="Ubuntu-Regular,Ubuntu" font-size="23.0" fill="#FEFFFE" transform="matrix(1.00, 0.00, -0.00, -1.00, 239.4, 121.4)"> </text><text xml:space="preserve" font-family="Ubuntu-Regular,Ubuntu" font-size="23.0" fill="#FEFFFE" transform="matrix(1.00, 0.00, -0.00, -1.00, 244.8, 121.4)">S</text><text xml:space="preserve" font-family="Ubuntu-Regular,Ubuntu" font-size="23.0" fill="#FEFFFE" transform="matrix(1.00, 0.00, -0.00, -1.00, 257.1, 121.4)">t</text><text xml:space="preserve" font-family="Ubuntu-Regular,Ubuntu" font-size="23.0" fill="#FEFFFE" transform="matrix(1.00, 0.00, -0.00, -1.00, 266.4, 121.4)">r</text><text xml:space="preserve" font-family="Ubuntu-Regular,Ubuntu" font-size="23.0" fill="#FEFFFE" transform="matrix(1.00, 0.00, -0.00, -1.00, 275.4, 121.4)">u</text><text xml:space="preserve" font-family="Ubuntu-Regular,Ubuntu" font-size="23.0" fill="#FEFFFE" transform="matrix(1.00, 0.00, -0.00, -1.00, 288.7, 121.4)">c</text><text xml:space="preserve" font-family="Ubuntu-Regular,Ubuntu" font-size="23.0" fill="#FEFFFE" transform="matrix(1.00, 0.00, -0.00, -1.00, 299.5, 121.4)">t</text><text xml:space="preserve" font-family="Ubuntu-Regular,Ubuntu" font-size="23.0" fill="#FEFFFE" transform="matrix(1.00, 0.00, -0.00, -1.00, 308.8, 121.4)">u</text><text xml:space="preserve" font-family="Ubuntu-Regular,Ubuntu" font-size="23.0" fill="#FEFFFE" transform="matrix(1.00, 0.00, -0.00, -1.00, 322.1, 121.4)">r</text><text xml:space="preserve" font-family="Ubuntu-Regular,Ubuntu" font-size="23.0" fill="#FEFFFE" transform="matrix(1.00, 0.00, -0.00, -1.00, 331.1, 121.4)">e</text><text xml:space="preserve" font-family="Ubuntu-Regular,Ubuntu" font-size="23.0" fill="#FEFFFE" transform="matrix(1.00, 0.00, -0.00, -1.00, 344.0, 121.4)">d</text><text xml:space="preserve" font-family="Ubuntu-Regular,Ubuntu" font-size="23.0" fill="#FEFFFE" transform="matrix(1.00, 0.00, -0.00, -1.00, 357.7, 121.4)"> </text><text xml:space="preserve" font-family="Ubuntu-Regular,Ubuntu" font-size="23.0" fill="#FEFFFE" transform="matrix(1.00, 0.00, -0.00, -1.00, 363.1, 121.4)">N</text><text xml:space="preserve" font-family="Ubuntu-Regular,Ubuntu" font-size="23.0" fill="#FEFFFE" transform="matrix(1.00, 0.00, -0.00, -1.00, 379.9, 121.4)">o</text><text xml:space="preserve" font-family="Ubuntu-Regular,Ubuntu" font-size="23.0" fill="#FEFFFE" transform="matrix(1.00, 0.00, -0.00, -1.00, 393.6, 121.4)">t</text><text xml:space="preserve" font-family="Ubuntu-Regular,Ubuntu" font-size="23.0" fill="#FEFFFE" transform="matrix(1.00, 0.00, -0.00, -1.00, 402.7, 121.4)">e</text><text xml:space="preserve" font-family="Ubuntu-Regular,Ubuntu" font-size="23.0" fill="#FEFFFE" transform="matrix(1.00, 0.00, -0.00, -1.00, 415.6, 121.4)">s</text></g></g></g></svg>