<?xml version="1.0" encoding="UTF-8" standalone="no"?><svg xmlns="http://www.w3.org/2000/svg" xmlns:xlink="http://www.w3.org/1999/xlink" clip-rule="evenodd" stroke-miterlimit="10" viewBox="0 0 712 244"><desc>SVG generated by Keynote</desc><defs></defs><g transform="matrix(1.00, 0.00, -0.00, -1.00, 0.0, 244.0)"><g><clipPath id="clip0x6000016b2660"><path d="M -7.3 174.0 L 719.3 174.0 L 719.3 251.2 L -7.3 251.2 Z M -7.3 174.0 "></path></clipPath><g clip-path="url(#clip0x6000016b2660)"><text xml:space="preserve" font-family="Ubuntu-BoldItalic,Ubuntu" font-style="italic" font-weight="bold" font-size="45.0" fill="#FEFFFE" transform="matrix(1.00, 0.00, -0.00, -1.00, 108.3, 196.4)">A</text><text xml:space="preserve" font-family="Ubuntu-BoldItalic,Ubuntu" font-style="italic" font-weight="bold" font-size="45.0" fill="#FEFFFE" transform="matrix(1.00, 0.00, -0.00, -1.00, 140.5, 196.4)">p</text><text xml:space="preserve" font-family="Ubuntu-BoldItalic,Ubuntu" font-style="italic" font-weight="bold" font-size="45.0" fill="#FEFFFE" transform="matrix(1.00, 0.00, -0.00, -1.00, 166.5, 196.4)">p</text><text xml:space="preserve" font-family="Ubuntu-BoldItalic,Ubuntu" font-style="italic" font-weight="bold" font-size="45.0" fill="#FEFFFE" transform="matrix(1.00, 0.00, -0.00, -1.00, 192.5, 196.4)">r</text><text xml:space="preserve" font-family="Ubuntu-BoldItalic,Ubuntu" font-style="italic" font-weight="bold" font-size="45.0" fill="#FEFFFE" transform="matrix(1.00, 0.00, -0.00, -1.00, 210.8, 196.4)">o</text><text xml:space="preserve" font-family="Ubuntu-BoldItalic,Ubuntu" font-style="italic" font-weight="bold" font-size="45.0" fill="#FEFFFE" transform="matrix(1.00, 0.00, -0.00, -1.00, 236.6, 196.4)">a</text><text xml:space="preserve" font-family="Ubuntu-BoldItalic,Ubuntu" font-style="italic" font-weight="bold" font-size="45.0" fill="#FEFFFE" transform="matrix(1.00, 0.00, -0.00, -1.00, 263.1, 196.4)">c</text><text xml:space="preserve" font-family="Ubuntu-BoldItalic,Ubuntu" font-style="italic" font-weight="bold" font-size="45.0" fill="#FEFFFE" transform="matrix(1.00, 0.00, -0.00, -1.00, 284.7, 196.4)">h</text><text xml:space="preserve" font-family="Ubuntu-BoldItalic,Ubuntu" font-style="italic" font-weight="bold" font-size="45.0" fill="#FEFFFE" transform="matrix(1.00, 0.00, -0.00, -1.00, 310.1, 196.4)">e</text><text xml:space="preserve" font-family="Ubuntu-BoldItalic,Ubuntu" font-style="italic" font-weight="bold" font-size="45.0" fill="#FEFFFE" transform="matrix(1.00, 0.00, -0.00, -1.00, 333.9, 196.4)">s</text><text xml:space="preserve" font-family="Ubuntu-BoldItalic,Ubuntu" font-style="italic" font-weight="bold" font-size="45.0" fill="#FEFFFE" transform="matrix(1.00, 0.00, -0.00, -1.00, 355.7, 196.4)"> </text><text xml:space="preserve" font-family="Ubuntu-BoldItalic,Ubuntu" font-style="italic" font-weight="bold" font-size="45.0" fill="#FEFFFE" transform="matrix(1.00, 0.00, -0.00, -1.00, 366.5, 196.4)">t</text><text xml:space="preserve" font-family="Ubuntu-BoldItalic,Ubuntu" font-style="italic" font-weight="bold" font-size="45.0" fill="#FEFFFE" transform="matrix(1.00, 0.00, -0.00, -1.00, 384.5, 196.4)">o</text><text xml:space="preserve" font-family="Ubuntu-BoldItalic,Ubuntu" font-style="italic" font-weight="bold" font-size="45.0" fill="#FEFFFE" transform="matrix(1.00, 0.00, -0.00, -1.00, 410.3, 196.4)"> </text><text xml:space="preserve" font-family="Ubuntu-BoldItalic,Ubuntu" font-style="italic" font-weight="bold" font-size="45.0" fill="#FEFFFE" transform="matrix(1.00, 0.00, -0.00, -1.00, 421.1, 196.4)">L</text><text xml:space="preserve" font-family="Ubuntu-BoldItalic,Ubuntu" font-style="italic" font-weight="bold" font-size="45.0" fill="#FEFFFE" transform="matrix(1.00, 0.00, -0.00, -1.00, 445.6, 196.4)">e</text><text xml:space="preserve" font-family="Ubuntu-BoldItalic,Ubuntu" font-style="italic" font-weight="bold" font-size="45.0" fill="#FEFFFE" transform="matrix(1.00, 0.00, -0.00, -1.00, 469.5, 196.4)">a</text><text xml:space="preserve" font-family="Ubuntu-BoldItalic,Ubuntu" font-style="italic" font-weight="bold" font-size="45.0" fill="#FEFFFE" transform="matrix(1.00, 0.00, -0.00, -1.00, 495.9, 196.4)">r</text><text xml:space="preserve" font-family="Ubuntu-BoldItalic,Ubuntu" font-style="italic" font-weight="bold" font-size="45.0" fill="#FEFFFE" transform="matrix(1.00, 0.00, -0.00, -1.00, 514.4, 196.4)">n</text><text xml:space="preserve" font-family="Ubuntu-BoldItalic,Ubuntu" font-style="italic" font-weight="bold" font-size="45.0" fill="#FEFFFE" transform="matrix(1.00, 0.00, -0.00, -1.00, 539.9, 196.4)">i</text><text xml:space="preserve" font-family="Ubuntu-BoldItalic,Ubuntu" font-style="italic" font-weight="bold" font-size="45.0" fill="#FEFFFE" transform="matrix(1.00, 0.00, -0.00, -1.00, 552.6, 196.4)">n</text><text xml:space="preserve" font-family="Ubuntu-BoldItalic,Ubuntu" font-style="italic" font-weight="bold" font-size="45.0" fill="#FEFFFE" transform="matrix(1.00, 0.00, -0.00, -1.00, 578.1, 196.4)">g</text></g></g><g><clipPath id="clip0x608001aa3de0"><path d="M -6.2 -6.8 L 718.2 -6.8 L 718.2 170.2 L -6.2 170.2 Z M -6.2 -6.8 "></path></clipPath><g clip-path="url(#clip0x608001aa3de0)"><text xml:space="preserve" font-family="Ubuntu-Italic,Ubuntu" font-style="italic" font-size="41.0" fill="#FEFFFE" transform="matrix(1.00, 0.00, -0.00, -1.00, 76.7, 120.6)">H</text><text xml:space="preserve" font-family="Ubuntu-Italic,Ubuntu" font-style="italic" font-size="41.0" fill="#FEFFFE" transform="matrix(1.00, 0.00, -0.00, -1.00, 104.8, 120.6)">o</text><text xml:space="preserve" font-family="Ubuntu-Italic,Ubuntu" font-style="italic" font-size="41.0" fill="#FEFFFE" transform="matrix(1.00, 0.00, -0.00, -1.00, 127.6, 120.6)">w</text><text xml:space="preserve" font-family="Ubuntu-Italic,Ubuntu" font-style="italic" font-size="41.0" fill="#FEFFFE" transform="matrix(1.00, 0.00, -0.00, -1.00, 160.0, 120.6)"> </text><text xml:space="preserve" font-family="Ubuntu-Italic,Ubuntu" font-style="italic" font-size="41.0" fill="#FEFFFE" transform="matrix(1.00, 0.00, -0.00, -1.00, 169.6, 120.6)">d</text><text xml:space="preserve" font-family="Ubuntu-Italic,Ubuntu" font-style="italic" font-size="41.0" fill="#FEFFFE" transform="matrix(1.00, 0.00, -0.00, -1.00, 192.2, 120.6)">o</text><text xml:space="preserve" font-family="Ubuntu-Italic,Ubuntu" font-style="italic" font-size="41.0" fill="#FEFFFE" transform="matrix(1.00, 0.00, -0.00, -1.00, 215.1, 120.6)"> </text><text xml:space="preserve" font-family="Ubuntu-Italic,Ubuntu" font-style="italic" font-size="41.0" fill="#FEFFFE" transform="matrix(1.00, 0.00, -0.00, -1.00, 224.8, 120.6)">d</text><text xml:space="preserve" font-family="Ubuntu-Italic,Ubuntu" font-style="italic" font-size="41.0" fill="#FEFFFE" transform="matrix(1.00, 0.00, -0.00, -1.00, 247.4, 120.6)">i</text><text xml:space="preserve" font-family="Ubuntu-Italic,Ubuntu" font-style="italic" font-size="41.0" fill="#FEFFFE" transform="matrix(1.00, 0.00, -0.00, -1.00, 257.7, 120.6)">ﬀ</text><text xml:space="preserve" font-family="Ubuntu-Italic,Ubuntu" font-style="italic" font-size="41.0" fill="#FEFFFE" transform="matrix(1.00, 0.00, -0.00, -1.00, 288.1, 120.6)">e</text><text xml:space="preserve" font-family="Ubuntu-Italic,Ubuntu" font-style="italic" font-size="41.0" fill="#FEFFFE" transform="matrix(1.00, 0.00, -0.00, -1.00, 309.5, 120.6)">r</text><text xml:space="preserve" font-family="Ubuntu-Italic,Ubuntu" font-style="italic" font-size="41.0" fill="#FEFFFE" transform="matrix(1.00, 0.00, -0.00, -1.00, 324.7, 120.6)">e</text><text xml:space="preserve" font-family="Ubuntu-Italic,Ubuntu" font-style="italic" font-size="41.0" fill="#FEFFFE" transform="matrix(1.00, 0.00, -0.00, -1.00, 346.1, 120.6)">n</text><text xml:space="preserve" font-family="Ubuntu-Italic,Ubuntu" font-style="italic" font-size="41.0" fill="#FEFFFE" transform="matrix(1.00, 0.00, -0.00, -1.00, 368.9, 120.6)">t</text><text xml:space="preserve" font-family="Ubuntu-Italic,Ubuntu" font-style="italic" font-size="41.0" fill="#FEFFFE" transform="matrix(1.00, 0.00, -0.00, -1.00, 385.0, 120.6)"> </text><text xml:space="preserve" font-family="Ubuntu-Italic,Ubuntu" font-style="italic" font-size="41.0" fill="#FEFFFE" transform="matrix(1.00, 0.00, -0.00, -1.00, 394.6, 120.6)">p</text><text xml:space="preserve" font-family="Ubuntu-Italic,Ubuntu" font-style="italic" font-size="41.0" fill="#FEFFFE" transform="matrix(1.00, 0.00, -0.00, -1.00, 417.2, 120.6)">e</text><text xml:space="preserve" font-family="Ubuntu-Italic,Ubuntu" font-style="italic" font-size="41.0" fill="#FEFFFE" transform="matrix(1.00, 0.00, -0.00, -1.00, 438.6, 120.6)">o</text><text xml:space="preserve" font-family="Ubuntu-Italic,Ubuntu" font-style="italic" font-size="41.0" fill="#FEFFFE" transform="matrix(1.00, 0.00, -0.00, -1.00, 461.5, 120.6)">p</text><text xml:space="preserve" font-family="Ubuntu-Italic,Ubuntu" font-style="italic" font-size="41.0" fill="#FEFFFE" transform="matrix(1.00, 0.00, -0.00, -1.00, 484.1, 120.6)">l</text><text xml:space="preserve" font-family="Ubuntu-Italic,Ubuntu" font-style="italic" font-size="41.0" fill="#FEFFFE" transform="matrix(1.00, 0.00, -0.00, -1.00, 495.2, 120.6)">e</text><text xml:space="preserve" font-family="Ubuntu-Italic,Ubuntu" font-style="italic" font-size="41.0" fill="#FEFFFE" transform="matrix(1.00, 0.00, -0.00, -1.00, 516.6, 120.6)"> </text><text xml:space="preserve" font-family="Ubuntu-Italic,Ubuntu" font-style="italic" font-size="41.0" fill="#FEFFFE" transform="matrix(1.00, 0.00, -0.00, -1.00, 526.2, 120.6)">l</text><text xml:space="preserve" font-family="Ubuntu-Italic,Ubuntu" font-style="italic" font-size="41.0" fill="#FEFFFE" transform="matrix(1.00, 0.00, -0.00, -1.00, 537.3, 120.6)">e</text><text xml:space="preserve" font-family="Ubuntu-Italic,Ubuntu" font-style="italic" font-size="41.0" fill="#FEFFFE" transform="matrix(1.00, 0.00, -0.00, -1.00, 558.7, 120.6)">a</text><text xml:space="preserve" font-family="Ubuntu-Italic,Ubuntu" font-style="italic" font-size="41.0" fill="#FEFFFE" transform="matrix(1.00, 0.00, -0.00, -1.00, 581.2, 120.6)">r</text><text xml:space="preserve" font-family="Ubuntu-Italic,Ubuntu" font-style="italic" font-size="41.0" fill="#FEFFFE" transform="matrix(1.00, 0.00, -0.00, -1.00, 596.6, 120.6)">n</text><text xml:space="preserve" font-family="Ubuntu-Italic,Ubuntu" font-style="italic" font-size="41.0" fill="#FEFFFE" transform="matrix(1.00, 0.00, -0.00, -1.00, 619.4, 120.6)">?</text><text xml:space="preserve" font-family="Ubuntu-Italic,Ubuntu" font-style="italic" font-size="41.0" fill="#FEFFFE" transform="matrix(1.00, 0.00, -0.00, -1.00, 635.3, 120.6)"> </text><text xml:space="preserve" font-family="Ubuntu-Italic,Ubuntu" font-style="italic" font-size="41.0" fill="#FEFFFE" transform="matrix(1.00, 0.00, -0.00, -1.00, 43.3, 60.6)">H</text><text xml:space="preserve" font-family="Ubuntu-Italic,Ubuntu" font-style="italic" font-size="41.0" fill="#FEFFFE" transform="matrix(1.00, 0.00, -0.00, -1.00, 71.4, 60.6)">o</text><text xml:space="preserve" font-family="Ubuntu-Italic,Ubuntu" font-style="italic" font-size="41.0" fill="#FEFFFE" transform="matrix(1.00, 0.00, -0.00, -1.00, 94.2, 60.6)">w</text><text xml:space="preserve" font-family="Ubuntu-Italic,Ubuntu" font-style="italic" font-size="41.0" fill="#FEFFFE" transform="matrix(1.00, 0.00, -0.00, -1.00, 126.6, 60.6)"> </text><text xml:space="preserve" font-family="Ubuntu-Italic,Ubuntu" font-style="italic" font-size="41.0" fill="#FEFFFE" transform="matrix(1.00, 0.00, -0.00, -1.00, 136.2, 60.6)">c</text><text xml:space="preserve" font-family="Ubuntu-Italic,Ubuntu" font-style="italic" font-size="41.0" fill="#FEFFFE" transform="matrix(1.00, 0.00, -0.00, -1.00, 154.5, 60.6)">a</text><text xml:space="preserve" font-family="Ubuntu-Italic,Ubuntu" font-style="italic" font-size="41.0" fill="#FEFFFE" transform="matrix(1.00, 0.00, -0.00, -1.00, 177.0, 60.6)">n</text><text xml:space="preserve" font-family="Ubuntu-Italic,Ubuntu" font-style="italic" font-size="41.0" fill="#FEFFFE" transform="matrix(1.00, 0.00, -0.00, -1.00, 199.7, 60.6)"> </text><text xml:space="preserve" font-family="Ubuntu-Italic,Ubuntu" font-style="italic" font-size="41.0" fill="#FEFFFE" transform="matrix(1.00, 0.00, -0.00, -1.00, 209.4, 60.6)">I</text><text xml:space="preserve" font-family="Ubuntu-Italic,Ubuntu" font-style="italic" font-size="41.0" fill="#FEFFFE" transform="matrix(1.00, 0.00, -0.00, -1.00, 220.3, 60.6)"> </text><text xml:space="preserve" font-family="Ubuntu-Italic,Ubuntu" font-style="italic" font-size="41.0" fill="#FEFFFE" transform="matrix(1.00, 0.00, -0.00, -1.00, 230.0, 60.6)">t</text><text xml:space="preserve" font-family="Ubuntu-Italic,Ubuntu" font-style="italic" font-size="41.0" fill="#FEFFFE" transform="matrix(1.00, 0.00, -0.00, -1.00, 245.9, 60.6)">e</text><text xml:space="preserve" font-family="Ubuntu-Italic,Ubuntu" font-style="italic" font-size="41.0" fill="#FEFFFE" transform="matrix(1.00, 0.00, -0.00, -1.00, 267.3, 60.6)">a</text><text xml:space="preserve" font-family="Ubuntu-Italic,Ubuntu" font-style="italic" font-size="41.0" fill="#FEFFFE" transform="matrix(1.00, 0.00, -0.00, -1.00, 289.7, 60.6)">c</text><text xml:space="preserve" font-family="Ubuntu-Italic,Ubuntu" font-style="italic" font-size="41.0" fill="#FEFFFE" transform="matrix(1.00, 0.00, -0.00, -1.00, 308.4, 60.6)">h</text><text xml:space="preserve" font-family="Ubuntu-Italic,Ubuntu" font-style="italic" font-size="41.0" fill="#FEFFFE" transform="matrix(1.00, 0.00, -0.00, -1.00, 331.2, 60.6)"> </text><text xml:space="preserve" font-family="Ubuntu-Italic,Ubuntu" font-style="italic" font-size="41.0" fill="#FEFFFE" transform="matrix(1.00, 0.00, -0.00, -1.00, 340.8, 60.6)">o</text><text xml:space="preserve" font-family="Ubuntu-Italic,Ubuntu" font-style="italic" font-size="41.0" fill="#FEFFFE" transform="matrix(1.00, 0.00, -0.00, -1.00, 363.7, 60.6)">t</text><text xml:space="preserve" font-family="Ubuntu-Italic,Ubuntu" font-style="italic" font-size="41.0" fill="#FEFFFE" transform="matrix(1.00, 0.00, -0.00, -1.00, 379.9, 60.6)">h</text><text xml:space="preserve" font-family="Ubuntu-Italic,Ubuntu" font-style="italic" font-size="41.0" fill="#FEFFFE" transform="matrix(1.00, 0.00, -0.00, -1.00, 402.7, 60.6)">e</text><text xml:space="preserve" font-family="Ubuntu-Italic,Ubuntu" font-style="italic" font-size="41.0" fill="#FEFFFE" transform="matrix(1.00, 0.00, -0.00, -1.00, 424.1, 60.6)">r</text><text xml:space="preserve" font-family="Ubuntu-Italic,Ubuntu" font-style="italic" font-size="41.0" fill="#FEFFFE" transform="matrix(1.00, 0.00, -0.00, -1.00, 439.5, 60.6)"> </text><text xml:space="preserve" font-family="Ubuntu-Italic,Ubuntu" font-style="italic" font-size="41.0" fill="#FEFFFE" transform="matrix(1.00, 0.00, -0.00, -1.00, 449.1, 60.6)">p</text><text xml:space="preserve" font-family="Ubuntu-Italic,Ubuntu" font-style="italic" font-size="41.0" fill="#FEFFFE" transform="matrix(1.00, 0.00, -0.00, -1.00, 471.7, 60.6)">e</text><text xml:space="preserve" font-family="Ubuntu-Italic,Ubuntu" font-style="italic" font-size="41.0" fill="#FEFFFE" transform="matrix(1.00, 0.00, -0.00, -1.00, 493.1, 60.6)">o</text><text xml:space="preserve" font-family="Ubuntu-Italic,Ubuntu" font-style="italic" font-size="41.0" fill="#FEFFFE" transform="matrix(1.00, 0.00, -0.00, -1.00, 516.0, 60.6)">p</text><text xml:space="preserve" font-family="Ubuntu-Italic,Ubuntu" font-style="italic" font-size="41.0" fill="#FEFFFE" transform="matrix(1.00, 0.00, -0.00, -1.00, 538.5, 60.6)">l</text><text xml:space="preserve" font-family="Ubuntu-Italic,Ubuntu" font-style="italic" font-size="41.0" fill="#FEFFFE" transform="matrix(1.00, 0.00, -0.00, -1.00, 549.6, 60.6)">e</text><text xml:space="preserve" font-family="Ubuntu-Italic,Ubuntu" font-style="italic" font-size="41.0" fill="#FEFFFE" transform="matrix(1.00, 0.00, -0.00, -1.00, 571.0, 60.6)"> </text><text xml:space="preserve" font-family="Ubuntu-Italic,Ubuntu" font-style="italic" font-size="41.0" fill="#FEFFFE" transform="matrix(1.00, 0.00, -0.00, -1.00, 580.7, 60.6)">i</text><text xml:space="preserve" font-family="Ubuntu-Italic,Ubuntu" font-style="italic" font-size="41.0" fill="#FEFFFE" transform="matrix(1.00, 0.00, -0.00, -1.00, 591.1, 60.6)">n</text><text xml:space="preserve" font-family="Ubuntu-Italic,Ubuntu" font-style="italic" font-size="41.0" fill="#FEFFFE" transform="matrix(1.00, 0.00, -0.00, -1.00, 613.8, 60.6)"> </text><text xml:space="preserve" font-family="Ubuntu-Italic,Ubuntu" font-style="italic" font-size="41.0" fill="#FEFFFE" transform="matrix(1.00, 0.00, -0.00, -1.00, 623.4, 60.6)">a</text><text xml:space="preserve" font-family="Ubuntu-Italic,Ubuntu" font-style="italic" font-size="41.0" fill="#FEFFFE" transform="matrix(1.00, 0.00, -0.00, -1.00, 645.9, 60.6)">n</text><text xml:space="preserve" font-family="Ubuntu-Italic,Ubuntu" font-style="italic" font-size="41.0" fill="#FEFFFE" transform="matrix(1.00, 0.00, -0.00, -1.00, 668.7, 60.6)"> </text><text xml:space="preserve" font-family="Ubuntu-Italic,Ubuntu" font-style="italic" font-size="41.0" fill="#FEFFFE" transform="matrix(1.00, 0.00, -0.00, -1.00, 226.1, 13.6)">e</text><text xml:space="preserve" font-family="Ubuntu-Italic,Ubuntu" font-style="italic" font-size="41.0" fill="#FEFFFE" transform="matrix(1.00, 0.00, -0.00, -1.00, 247.5, 13.6)">ﬀ</text><text xml:space="preserve" font-family="Ubuntu-Italic,Ubuntu" font-style="italic" font-size="41.0" fill="#FEFFFE" transform="matrix(1.00, 0.00, -0.00, -1.00, 277.9, 13.6)">e</text><text xml:space="preserve" font-family="Ubuntu-Italic,Ubuntu" font-style="italic" font-size="41.0" fill="#FEFFFE" transform="matrix(1.00, 0.00, -0.00, -1.00, 299.3, 13.6)">c</text><text xml:space="preserve" font-family="Ubuntu-Italic,Ubuntu" font-style="italic" font-size="41.0" fill="#FEFFFE" transform="matrix(1.00, 0.00, -0.00, -1.00, 317.9, 13.6)">t</text><text xml:space="preserve" font-family="Ubuntu-Italic,Ubuntu" font-style="italic" font-size="41.0" fill="#FEFFFE" transform="matrix(1.00, 0.00, -0.00, -1.00, 334.0, 13.6)">i</text><text xml:space="preserve" font-family="Ubuntu-Italic,Ubuntu" font-style="italic" font-size="41.0" fill="#FEFFFE" transform="matrix(1.00, 0.00, -0.00, -1.00, 344.4, 13.6)">v</text><text xml:space="preserve" font-family="Ubuntu-Italic,Ubuntu" font-style="italic" font-size="41.0" fill="#FEFFFE" transform="matrix(1.00, 0.00, -0.00, -1.00, 364.3, 13.6)">e</text><text xml:space="preserve" font-family="Ubuntu-Italic,Ubuntu" font-style="italic" font-size="41.0" fill="#FEFFFE" transform="matrix(1.00, 0.00, -0.00, -1.00, 385.7, 13.6)"> </text><text xml:space="preserve" font-family="Ubuntu-Italic,Ubuntu" font-style="italic" font-size="41.0" fill="#FEFFFE" transform="matrix(1.00, 0.00, -0.00, -1.00, 395.3, 13.6)">w</text><text xml:space="preserve" font-family="Ubuntu-Italic,Ubuntu" font-style="italic" font-size="41.0" fill="#FEFFFE" transform="matrix(1.00, 0.00, -0.00, -1.00, 427.8, 13.6)">a</text><text xml:space="preserve" font-family="Ubuntu-Italic,Ubuntu" font-style="italic" font-size="41.0" fill="#FEFFFE" transform="matrix(1.00, 0.00, -0.00, -1.00, 450.2, 13.6)">y</text><text xml:space="preserve" font-family="Ubuntu-Italic,Ubuntu" font-style="italic" font-size="41.0" fill="#FEFFFE" transform="matrix(1.00, 0.00, -0.00, -1.00, 470.0, 13.6)">?</text></g></g></g></svg>