<?xml version="1.0" encoding="UTF-8" standalone="no"?><svg xmlns="http://www.w3.org/2000/svg" xmlns:xlink="http://www.w3.org/1999/xlink" clip-rule="evenodd" stroke-miterlimit="10" viewBox="0 0 610 44"><desc>SVG generated by Keynote</desc><defs></defs><g transform="matrix(1.00, 0.00, -0.00, -1.00, 0.0, 44.0)"><text xml:space="preserve" font-family="Ubuntu-Italic,Ubuntu" font-style="italic" font-size="38.0" fill="#FEFFFE" transform="matrix(1.00, 0.00, -0.00, -1.00, 0.3, 7.7)">3</text><text xml:space="preserve" font-family="Ubuntu-Italic,Ubuntu" font-style="italic" font-size="38.0" fill="#FEFFFE" transform="matrix(1.00, 0.00, -0.00, -1.00, 21.9, 7.7)">.</text><text xml:space="preserve" font-family="Ubuntu-Italic,Ubuntu" font-style="italic" font-size="38.0" fill="#FEFFFE" transform="matrix(1.00, 0.00, -0.00, -1.00, 60.7, 7.7)">H</text><text xml:space="preserve" font-family="Ubuntu-Italic,Ubuntu" font-style="italic" font-size="38.0" fill="#FEFFFE" transform="matrix(1.00, 0.00, -0.00, -1.00, 86.7, 7.7)">o</text><text xml:space="preserve" font-family="Ubuntu-Italic,Ubuntu" font-style="italic" font-size="38.0" fill="#FEFFFE" transform="matrix(1.00, 0.00, -0.00, -1.00, 107.8, 7.7)">w</text><text xml:space="preserve" font-family="Ubuntu-Italic,Ubuntu" font-style="italic" font-size="38.0" fill="#FEFFFE" transform="matrix(1.00, 0.00, -0.00, -1.00, 137.9, 7.7)"> </text><text xml:space="preserve" font-family="Ubuntu-Italic,Ubuntu" font-style="italic" font-size="38.0" fill="#FEFFFE" transform="matrix(1.00, 0.00, -0.00, -1.00, 146.8, 7.7)">d</text><text xml:space="preserve" font-family="Ubuntu-Italic,Ubuntu" font-style="italic" font-size="38.0" fill="#FEFFFE" transform="matrix(1.00, 0.00, -0.00, -1.00, 167.7, 7.7)">o</text><text xml:space="preserve" font-family="Ubuntu-Italic,Ubuntu" font-style="italic" font-size="38.0" fill="#FEFFFE" transform="matrix(1.00, 0.00, -0.00, -1.00, 189.0, 7.7)"> </text><text xml:space="preserve" font-family="Ubuntu-Italic,Ubuntu" font-style="italic" font-size="38.0" fill="#FEFFFE" transform="matrix(1.00, 0.00, -0.00, -1.00, 197.9, 7.7)">I</text><text xml:space="preserve" font-family="Ubuntu-Italic,Ubuntu" font-style="italic" font-size="38.0" fill="#FEFFFE" transform="matrix(1.00, 0.00, -0.00, -1.00, 208.1, 7.7)"> </text><text xml:space="preserve" font-family="Ubuntu-Italic,Ubuntu" font-style="italic" font-size="38.0" fill="#FEFFFE" transform="matrix(1.00, 0.00, -0.00, -1.00, 217.0, 7.7)">s</text><text xml:space="preserve" font-family="Ubuntu-Italic,Ubuntu" font-style="italic" font-size="38.0" fill="#FEFFFE" transform="matrix(1.00, 0.00, -0.00, -1.00, 232.8, 7.7)">h</text><text xml:space="preserve" font-family="Ubuntu-Italic,Ubuntu" font-style="italic" font-size="38.0" fill="#FEFFFE" transform="matrix(1.00, 0.00, -0.00, -1.00, 253.9, 7.7)">o</text><text xml:space="preserve" font-family="Ubuntu-Italic,Ubuntu" font-style="italic" font-size="38.0" fill="#FEFFFE" transform="matrix(1.00, 0.00, -0.00, -1.00, 275.0, 7.7)">w</text><text xml:space="preserve" font-family="Ubuntu-Italic,Ubuntu" font-style="italic" font-size="38.0" fill="#FEFFFE" transform="matrix(1.00, 0.00, -0.00, -1.00, 305.1, 7.7)"> </text><text xml:space="preserve" font-family="Ubuntu-Italic,Ubuntu" font-style="italic" font-size="38.0" fill="#FEFFFE" transform="matrix(1.00, 0.00, -0.00, -1.00, 314.0, 7.7)">v</text><text xml:space="preserve" font-family="Ubuntu-Italic,Ubuntu" font-style="italic" font-size="38.0" fill="#FEFFFE" transform="matrix(1.00, 0.00, -0.00, -1.00, 332.4, 7.7)">i</text><text xml:space="preserve" font-family="Ubuntu-Italic,Ubuntu" font-style="italic" font-size="38.0" fill="#FEFFFE" transform="matrix(1.00, 0.00, -0.00, -1.00, 342.0, 7.7)">d</text><text xml:space="preserve" font-family="Ubuntu-Italic,Ubuntu" font-style="italic" font-size="38.0" fill="#FEFFFE" transform="matrix(1.00, 0.00, -0.00, -1.00, 363.0, 7.7)">e</text><text xml:space="preserve" font-family="Ubuntu-Italic,Ubuntu" font-style="italic" font-size="38.0" fill="#FEFFFE" transform="matrix(1.00, 0.00, -0.00, -1.00, 382.8, 7.7)">o</text><text xml:space="preserve" font-family="Ubuntu-Italic,Ubuntu" font-style="italic" font-size="38.0" fill="#FEFFFE" transform="matrix(1.00, 0.00, -0.00, -1.00, 404.1, 7.7)"> </text><text xml:space="preserve" font-family="Ubuntu-Italic,Ubuntu" font-style="italic" font-size="38.0" fill="#FEFFFE" transform="matrix(1.00, 0.00, -0.00, -1.00, 413.0, 7.7)">o</text><text xml:space="preserve" font-family="Ubuntu-Italic,Ubuntu" font-style="italic" font-size="38.0" fill="#FEFFFE" transform="matrix(1.00, 0.00, -0.00, -1.00, 434.2, 7.7)">n</text><text xml:space="preserve" font-family="Ubuntu-Italic,Ubuntu" font-style="italic" font-size="38.0" fill="#FEFFFE" transform="matrix(1.00, 0.00, -0.00, -1.00, 455.3, 7.7)"> </text><text xml:space="preserve" font-family="Ubuntu-Italic,Ubuntu" font-style="italic" font-size="38.0" fill="#FEFFFE" transform="matrix(1.00, 0.00, -0.00, -1.00, 464.3, 7.7)">t</text><text xml:space="preserve" font-family="Ubuntu-Italic,Ubuntu" font-style="italic" font-size="38.0" fill="#FEFFFE" transform="matrix(1.00, 0.00, -0.00, -1.00, 479.2, 7.7)">h</text><text xml:space="preserve" font-family="Ubuntu-Italic,Ubuntu" font-style="italic" font-size="38.0" fill="#FEFFFE" transform="matrix(1.00, 0.00, -0.00, -1.00, 500.3, 7.7)">e</text><text xml:space="preserve" font-family="Ubuntu-Italic,Ubuntu" font-style="italic" font-size="38.0" fill="#FEFFFE" transform="matrix(1.00, 0.00, -0.00, -1.00, 520.2, 7.7)"> </text><text xml:space="preserve" font-family="Ubuntu-Italic,Ubuntu" font-style="italic" font-size="38.0" fill="#FEFFFE" transform="matrix(1.00, 0.00, -0.00, -1.00, 529.1, 7.7)">s</text><text xml:space="preserve" font-family="Ubuntu-Italic,Ubuntu" font-style="italic" font-size="38.0" fill="#FEFFFE" transform="matrix(1.00, 0.00, -0.00, -1.00, 544.9, 7.7)">i</text><text xml:space="preserve" font-family="Ubuntu-Italic,Ubuntu" font-style="italic" font-size="38.0" fill="#FEFFFE" transform="matrix(1.00, 0.00, -0.00, -1.00, 554.5, 7.7)">t</text><text xml:space="preserve" font-family="Ubuntu-Italic,Ubuntu" font-style="italic" font-size="38.0" fill="#FEFFFE" transform="matrix(1.00, 0.00, -0.00, -1.00, 569.3, 7.7)">e</text><text xml:space="preserve" font-family="Ubuntu-Italic,Ubuntu" font-style="italic" font-size="38.0" fill="#FEFFFE" transform="matrix(1.00, 0.00, -0.00, -1.00, 589.1, 7.7)">?</text></g></svg>