<?xml version="1.0" encoding="UTF-8" standalone="no"?><svg xmlns="http://www.w3.org/2000/svg" xmlns:xlink="http://www.w3.org/1999/xlink" clip-rule="evenodd" stroke-miterlimit="10" viewBox="0 0 584 45"><desc>SVG generated by Keynote</desc><defs></defs><g transform="matrix(1.00, 0.00, -0.00, -1.00, 0.0, 45.0)"><text xml:space="preserve" font-family="Ubuntu-Italic,Ubuntu" font-style="italic" font-size="38.0" fill="#FEFFFE" transform="matrix(1.00, 0.00, -0.00, -1.00, 0.3, 8.7)">1</text><text xml:space="preserve" font-family="Ubuntu-Italic,Ubuntu" font-style="italic" font-size="38.0" fill="#FEFFFE" transform="matrix(1.00, 0.00, -0.00, -1.00, 21.9, 8.7)">.</text><text xml:space="preserve" font-family="Ubuntu-Italic,Ubuntu" font-style="italic" font-size="38.0" fill="#FEFFFE" transform="matrix(1.00, 0.00, -0.00, -1.00, 60.7, 8.7)">H</text><text xml:space="preserve" font-family="Ubuntu-Italic,Ubuntu" font-style="italic" font-size="38.0" fill="#FEFFFE" transform="matrix(1.00, 0.00, -0.00, -1.00, 86.7, 8.7)">o</text><text xml:space="preserve" font-family="Ubuntu-Italic,Ubuntu" font-style="italic" font-size="38.0" fill="#FEFFFE" transform="matrix(1.00, 0.00, -0.00, -1.00, 107.8, 8.7)">w</text><text xml:space="preserve" font-family="Ubuntu-Italic,Ubuntu" font-style="italic" font-size="38.0" fill="#FEFFFE" transform="matrix(1.00, 0.00, -0.00, -1.00, 137.9, 8.7)"> </text><text xml:space="preserve" font-family="Ubuntu-Italic,Ubuntu" font-style="italic" font-size="38.0" fill="#FEFFFE" transform="matrix(1.00, 0.00, -0.00, -1.00, 146.8, 8.7)">d</text><text xml:space="preserve" font-family="Ubuntu-Italic,Ubuntu" font-style="italic" font-size="38.0" fill="#FEFFFE" transform="matrix(1.00, 0.00, -0.00, -1.00, 167.7, 8.7)">o</text><text xml:space="preserve" font-family="Ubuntu-Italic,Ubuntu" font-style="italic" font-size="38.0" fill="#FEFFFE" transform="matrix(1.00, 0.00, -0.00, -1.00, 189.0, 8.7)"> </text><text xml:space="preserve" font-family="Ubuntu-Italic,Ubuntu" font-style="italic" font-size="38.0" fill="#FEFFFE" transform="matrix(1.00, 0.00, -0.00, -1.00, 197.9, 8.7)">d</text><text xml:space="preserve" font-family="Ubuntu-Italic,Ubuntu" font-style="italic" font-size="38.0" fill="#FEFFFE" transform="matrix(1.00, 0.00, -0.00, -1.00, 218.9, 8.7)">i</text><text xml:space="preserve" font-family="Ubuntu-Italic,Ubuntu" font-style="italic" font-size="38.0" fill="#FEFFFE" transform="matrix(1.00, 0.00, -0.00, -1.00, 228.5, 8.7)">ﬀ</text><text xml:space="preserve" font-family="Ubuntu-Italic,Ubuntu" font-style="italic" font-size="38.0" fill="#FEFFFE" transform="matrix(1.00, 0.00, -0.00, -1.00, 256.6, 8.7)">e</text><text xml:space="preserve" font-family="Ubuntu-Italic,Ubuntu" font-style="italic" font-size="38.0" fill="#FEFFFE" transform="matrix(1.00, 0.00, -0.00, -1.00, 276.5, 8.7)">r</text><text xml:space="preserve" font-family="Ubuntu-Italic,Ubuntu" font-style="italic" font-size="38.0" fill="#FEFFFE" transform="matrix(1.00, 0.00, -0.00, -1.00, 290.6, 8.7)">e</text><text xml:space="preserve" font-family="Ubuntu-Italic,Ubuntu" font-style="italic" font-size="38.0" fill="#FEFFFE" transform="matrix(1.00, 0.00, -0.00, -1.00, 310.4, 8.7)">n</text><text xml:space="preserve" font-family="Ubuntu-Italic,Ubuntu" font-style="italic" font-size="38.0" fill="#FEFFFE" transform="matrix(1.00, 0.00, -0.00, -1.00, 331.5, 8.7)">t</text><text xml:space="preserve" font-family="Ubuntu-Italic,Ubuntu" font-style="italic" font-size="38.0" fill="#FEFFFE" transform="matrix(1.00, 0.00, -0.00, -1.00, 346.4, 8.7)"> </text><text xml:space="preserve" font-family="Ubuntu-Italic,Ubuntu" font-style="italic" font-size="38.0" fill="#FEFFFE" transform="matrix(1.00, 0.00, -0.00, -1.00, 355.3, 8.7)">p</text><text xml:space="preserve" font-family="Ubuntu-Italic,Ubuntu" font-style="italic" font-size="38.0" fill="#FEFFFE" transform="matrix(1.00, 0.00, -0.00, -1.00, 376.2, 8.7)">e</text><text xml:space="preserve" font-family="Ubuntu-Italic,Ubuntu" font-style="italic" font-size="38.0" fill="#FEFFFE" transform="matrix(1.00, 0.00, -0.00, -1.00, 396.1, 8.7)">o</text><text xml:space="preserve" font-family="Ubuntu-Italic,Ubuntu" font-style="italic" font-size="38.0" fill="#FEFFFE" transform="matrix(1.00, 0.00, -0.00, -1.00, 417.3, 8.7)">p</text><text xml:space="preserve" font-family="Ubuntu-Italic,Ubuntu" font-style="italic" font-size="38.0" fill="#FEFFFE" transform="matrix(1.00, 0.00, -0.00, -1.00, 438.2, 8.7)">l</text><text xml:space="preserve" font-family="Ubuntu-Italic,Ubuntu" font-style="italic" font-size="38.0" fill="#FEFFFE" transform="matrix(1.00, 0.00, -0.00, -1.00, 448.5, 8.7)">e</text><text xml:space="preserve" font-family="Ubuntu-Italic,Ubuntu" font-style="italic" font-size="38.0" fill="#FEFFFE" transform="matrix(1.00, 0.00, -0.00, -1.00, 468.4, 8.7)"> </text><text xml:space="preserve" font-family="Ubuntu-Italic,Ubuntu" font-style="italic" font-size="38.0" fill="#FEFFFE" transform="matrix(1.00, 0.00, -0.00, -1.00, 477.3, 8.7)">l</text><text xml:space="preserve" font-family="Ubuntu-Italic,Ubuntu" font-style="italic" font-size="38.0" fill="#FEFFFE" transform="matrix(1.00, 0.00, -0.00, -1.00, 487.6, 8.7)">e</text><text xml:space="preserve" font-family="Ubuntu-Italic,Ubuntu" font-style="italic" font-size="38.0" fill="#FEFFFE" transform="matrix(1.00, 0.00, -0.00, -1.00, 507.4, 8.7)">a</text><text xml:space="preserve" font-family="Ubuntu-Italic,Ubuntu" font-style="italic" font-size="38.0" fill="#FEFFFE" transform="matrix(1.00, 0.00, -0.00, -1.00, 528.2, 8.7)">r</text><text xml:space="preserve" font-family="Ubuntu-Italic,Ubuntu" font-style="italic" font-size="38.0" fill="#FEFFFE" transform="matrix(1.00, 0.00, -0.00, -1.00, 542.5, 8.7)">n</text><text xml:space="preserve" font-family="Ubuntu-Italic,Ubuntu" font-style="italic" font-size="38.0" fill="#FEFFFE" transform="matrix(1.00, 0.00, -0.00, -1.00, 563.6, 8.7)">?</text></g></svg>