<?xml version="1.0" encoding="UTF-8" standalone="no"?><svg xmlns="http://www.w3.org/2000/svg" xmlns:xlink="http://www.w3.org/1999/xlink" clip-rule="evenodd" stroke-miterlimit="10" viewBox="0 0 316 48"><desc>SVG generated by Keynote</desc><defs></defs><g transform="matrix(1.00, 0.00, -0.00, -1.00, 0.0, 48.0)"><text xml:space="preserve" font-family="Ubuntu-BoldItalic,Ubuntu" font-style="italic" font-weight="bold" font-size="41.0" fill="#FEFFFE" transform="matrix(1.00, 0.00, -0.00, -1.00, 0.3, 9.4)">1</text><text xml:space="preserve" font-family="Ubuntu-BoldItalic,Ubuntu" font-style="italic" font-weight="bold" font-size="41.0" fill="#FEFFFE" transform="matrix(1.00, 0.00, -0.00, -1.00, 23.6, 9.4)">.</text><text xml:space="preserve" font-family="Ubuntu-BoldItalic,Ubuntu" font-style="italic" font-weight="bold" font-size="41.0" fill="#FEFFFE" transform="matrix(1.00, 0.00, -0.00, -1.00, 60.7, 9.4)">I</text><text xml:space="preserve" font-family="Ubuntu-BoldItalic,Ubuntu" font-style="italic" font-weight="bold" font-size="41.0" fill="#FEFFFE" transform="matrix(1.00, 0.00, -0.00, -1.00, 73.5, 9.4)">n</text><text xml:space="preserve" font-family="Ubuntu-BoldItalic,Ubuntu" font-style="italic" font-weight="bold" font-size="41.0" fill="#FEFFFE" transform="matrix(1.00, 0.00, -0.00, -1.00, 96.7, 9.4)">v</text><text xml:space="preserve" font-family="Ubuntu-BoldItalic,Ubuntu" font-style="italic" font-weight="bold" font-size="41.0" fill="#FEFFFE" transform="matrix(1.00, 0.00, -0.00, -1.00, 119.1, 9.4)">e</text><text xml:space="preserve" font-family="Ubuntu-BoldItalic,Ubuntu" font-style="italic" font-weight="bold" font-size="41.0" fill="#FEFFFE" transform="matrix(1.00, 0.00, -0.00, -1.00, 140.9, 9.4)">s</text><text xml:space="preserve" font-family="Ubuntu-BoldItalic,Ubuntu" font-style="italic" font-weight="bold" font-size="41.0" fill="#FEFFFE" transform="matrix(1.00, 0.00, -0.00, -1.00, 160.7, 9.4)">t</text><text xml:space="preserve" font-family="Ubuntu-BoldItalic,Ubuntu" font-style="italic" font-weight="bold" font-size="41.0" fill="#FEFFFE" transform="matrix(1.00, 0.00, -0.00, -1.00, 177.7, 9.4)">i</text><text xml:space="preserve" font-family="Ubuntu-BoldItalic,Ubuntu" font-style="italic" font-weight="bold" font-size="41.0" fill="#FEFFFE" transform="matrix(1.00, 0.00, -0.00, -1.00, 189.3, 9.4)">g</text><text xml:space="preserve" font-family="Ubuntu-BoldItalic,Ubuntu" font-style="italic" font-weight="bold" font-size="41.0" fill="#FEFFFE" transform="matrix(1.00, 0.00, -0.00, -1.00, 212.6, 9.4)">a</text><text xml:space="preserve" font-family="Ubuntu-BoldItalic,Ubuntu" font-style="italic" font-weight="bold" font-size="41.0" fill="#FEFFFE" transform="matrix(1.00, 0.00, -0.00, -1.00, 236.7, 9.4)">t</text><text xml:space="preserve" font-family="Ubuntu-BoldItalic,Ubuntu" font-style="italic" font-weight="bold" font-size="41.0" fill="#FEFFFE" transform="matrix(1.00, 0.00, -0.00, -1.00, 253.7, 9.4)">i</text><text xml:space="preserve" font-family="Ubuntu-BoldItalic,Ubuntu" font-style="italic" font-weight="bold" font-size="41.0" fill="#FEFFFE" transform="matrix(1.00, 0.00, -0.00, -1.00, 265.3, 9.4)">o</text><text xml:space="preserve" font-family="Ubuntu-BoldItalic,Ubuntu" font-style="italic" font-weight="bold" font-size="41.0" fill="#FEFFFE" transform="matrix(1.00, 0.00, -0.00, -1.00, 288.9, 9.4)">n</text></g></svg>